%TF.GenerationSoftware,KiCad,Pcbnew,7.0.11+dfsg-1build4*%
%TF.CreationDate,2026-08-27T19:45:56+00:00*%
%TF.ProjectId,nlink-lite,6e6c696e-6b2d-46c6-9974-652e6b696361,rev?*%
%TF.SameCoordinates,Original*%
%TF.FileFunction,Legend,Top*%
%TF.FilePolarity,Positive*%
%FSLAX46Y46*%
G04 Gerber Fmt 4.6, Leading zero omitted, Abs format (unit mm)*
G04 Created by KiCad (PCBNEW 7.0.11+dfsg-1build4) date 2026-08-27 19:45:56*
%MOMM*%
%LPD*%
G01*
G04 APERTURE LIST*
%ADD10C,0.108000*%
%ADD11C,0.275000*%
%ADD12C,0.160000*%
%ADD13C,0.120000*%
%ADD14C,0.100000*%
G04 APERTURE END LIST*
D10*
X53471429Y-57791955D02*
X53471429Y-57191955D01*
X53471429Y-57191955D02*
X53614286Y-57191955D01*
X53614286Y-57191955D02*
X53700000Y-57220526D01*
X53700000Y-57220526D02*
X53757143Y-57277669D01*
X53757143Y-57277669D02*
X53785714Y-57334812D01*
X53785714Y-57334812D02*
X53814286Y-57449098D01*
X53814286Y-57449098D02*
X53814286Y-57534812D01*
X53814286Y-57534812D02*
X53785714Y-57649098D01*
X53785714Y-57649098D02*
X53757143Y-57706241D01*
X53757143Y-57706241D02*
X53700000Y-57763384D01*
X53700000Y-57763384D02*
X53614286Y-57791955D01*
X53614286Y-57791955D02*
X53471429Y-57791955D01*
X54071429Y-57563384D02*
X54528572Y-57563384D01*
X54300000Y-57791955D02*
X54300000Y-57334812D01*
X53471429Y-60331955D02*
X53471429Y-59731955D01*
X53471429Y-59731955D02*
X53614286Y-59731955D01*
X53614286Y-59731955D02*
X53700000Y-59760526D01*
X53700000Y-59760526D02*
X53757143Y-59817669D01*
X53757143Y-59817669D02*
X53785714Y-59874812D01*
X53785714Y-59874812D02*
X53814286Y-59989098D01*
X53814286Y-59989098D02*
X53814286Y-60074812D01*
X53814286Y-60074812D02*
X53785714Y-60189098D01*
X53785714Y-60189098D02*
X53757143Y-60246241D01*
X53757143Y-60246241D02*
X53700000Y-60303384D01*
X53700000Y-60303384D02*
X53614286Y-60331955D01*
X53614286Y-60331955D02*
X53471429Y-60331955D01*
X54071429Y-60103384D02*
X54528572Y-60103384D01*
D11*
X55454762Y-51461247D02*
X55454762Y-52194580D01*
X55454762Y-51566009D02*
X55507143Y-51513628D01*
X55507143Y-51513628D02*
X55611905Y-51461247D01*
X55611905Y-51461247D02*
X55769048Y-51461247D01*
X55769048Y-51461247D02*
X55873810Y-51513628D01*
X55873810Y-51513628D02*
X55926191Y-51618390D01*
X55926191Y-51618390D02*
X55926191Y-52194580D01*
X56607143Y-52194580D02*
X56502381Y-52142200D01*
X56502381Y-52142200D02*
X56450000Y-52037438D01*
X56450000Y-52037438D02*
X56450000Y-51094580D01*
X57026190Y-52194580D02*
X57026190Y-51461247D01*
X57026190Y-51094580D02*
X56973809Y-51146961D01*
X56973809Y-51146961D02*
X57026190Y-51199342D01*
X57026190Y-51199342D02*
X57078571Y-51146961D01*
X57078571Y-51146961D02*
X57026190Y-51094580D01*
X57026190Y-51094580D02*
X57026190Y-51199342D01*
X57550000Y-51461247D02*
X57550000Y-52194580D01*
X57550000Y-51566009D02*
X57602381Y-51513628D01*
X57602381Y-51513628D02*
X57707143Y-51461247D01*
X57707143Y-51461247D02*
X57864286Y-51461247D01*
X57864286Y-51461247D02*
X57969048Y-51513628D01*
X57969048Y-51513628D02*
X58021429Y-51618390D01*
X58021429Y-51618390D02*
X58021429Y-52194580D01*
X58545238Y-52194580D02*
X58545238Y-51094580D01*
X58650000Y-51775533D02*
X58964286Y-52194580D01*
X58964286Y-51461247D02*
X58545238Y-51880295D01*
X59435714Y-51775533D02*
X60273810Y-51775533D01*
X60954762Y-52194580D02*
X60850000Y-52142200D01*
X60850000Y-52142200D02*
X60797619Y-52037438D01*
X60797619Y-52037438D02*
X60797619Y-51094580D01*
X61373809Y-52194580D02*
X61373809Y-51461247D01*
X61373809Y-51094580D02*
X61321428Y-51146961D01*
X61321428Y-51146961D02*
X61373809Y-51199342D01*
X61373809Y-51199342D02*
X61426190Y-51146961D01*
X61426190Y-51146961D02*
X61373809Y-51094580D01*
X61373809Y-51094580D02*
X61373809Y-51199342D01*
X61740476Y-51461247D02*
X62159524Y-51461247D01*
X61897619Y-51094580D02*
X61897619Y-52037438D01*
X61897619Y-52037438D02*
X61950000Y-52142200D01*
X61950000Y-52142200D02*
X62054762Y-52194580D01*
X62054762Y-52194580D02*
X62159524Y-52194580D01*
X62945238Y-52142200D02*
X62840476Y-52194580D01*
X62840476Y-52194580D02*
X62630952Y-52194580D01*
X62630952Y-52194580D02*
X62526190Y-52142200D01*
X62526190Y-52142200D02*
X62473809Y-52037438D01*
X62473809Y-52037438D02*
X62473809Y-51618390D01*
X62473809Y-51618390D02*
X62526190Y-51513628D01*
X62526190Y-51513628D02*
X62630952Y-51461247D01*
X62630952Y-51461247D02*
X62840476Y-51461247D01*
X62840476Y-51461247D02*
X62945238Y-51513628D01*
X62945238Y-51513628D02*
X62997619Y-51618390D01*
X62997619Y-51618390D02*
X62997619Y-51723152D01*
X62997619Y-51723152D02*
X62473809Y-51827914D01*
D10*
X54157142Y-52140526D02*
X54100000Y-52111955D01*
X54100000Y-52111955D02*
X54014285Y-52111955D01*
X54014285Y-52111955D02*
X53928571Y-52140526D01*
X53928571Y-52140526D02*
X53871428Y-52197669D01*
X53871428Y-52197669D02*
X53842857Y-52254812D01*
X53842857Y-52254812D02*
X53814285Y-52369098D01*
X53814285Y-52369098D02*
X53814285Y-52454812D01*
X53814285Y-52454812D02*
X53842857Y-52569098D01*
X53842857Y-52569098D02*
X53871428Y-52626241D01*
X53871428Y-52626241D02*
X53928571Y-52683384D01*
X53928571Y-52683384D02*
X54014285Y-52711955D01*
X54014285Y-52711955D02*
X54071428Y-52711955D01*
X54071428Y-52711955D02*
X54157142Y-52683384D01*
X54157142Y-52683384D02*
X54185714Y-52654812D01*
X54185714Y-52654812D02*
X54185714Y-52454812D01*
X54185714Y-52454812D02*
X54071428Y-52454812D01*
X53428571Y-62271955D02*
X53628571Y-62871955D01*
X53628571Y-62871955D02*
X53828571Y-62271955D01*
X54028572Y-62643384D02*
X54485715Y-62643384D01*
X54257143Y-62871955D02*
X54257143Y-62414812D01*
D12*
X86750894Y-61685715D02*
X86750894Y-61257144D01*
X87008037Y-61771429D02*
X86108037Y-61471429D01*
X86108037Y-61471429D02*
X87008037Y-61171429D01*
X86408037Y-60871429D02*
X87008037Y-60871429D01*
X86493751Y-60871429D02*
X86450894Y-60828572D01*
X86450894Y-60828572D02*
X86408037Y-60742857D01*
X86408037Y-60742857D02*
X86408037Y-60614286D01*
X86408037Y-60614286D02*
X86450894Y-60528572D01*
X86450894Y-60528572D02*
X86536608Y-60485715D01*
X86536608Y-60485715D02*
X87008037Y-60485715D01*
X86408037Y-60185714D02*
X86408037Y-59842857D01*
X86108037Y-60057143D02*
X86879465Y-60057143D01*
X86879465Y-60057143D02*
X86965180Y-60014286D01*
X86965180Y-60014286D02*
X87008037Y-59928571D01*
X87008037Y-59928571D02*
X87008037Y-59842857D01*
X86965180Y-59200000D02*
X87008037Y-59285714D01*
X87008037Y-59285714D02*
X87008037Y-59457143D01*
X87008037Y-59457143D02*
X86965180Y-59542857D01*
X86965180Y-59542857D02*
X86879465Y-59585714D01*
X86879465Y-59585714D02*
X86536608Y-59585714D01*
X86536608Y-59585714D02*
X86450894Y-59542857D01*
X86450894Y-59542857D02*
X86408037Y-59457143D01*
X86408037Y-59457143D02*
X86408037Y-59285714D01*
X86408037Y-59285714D02*
X86450894Y-59200000D01*
X86450894Y-59200000D02*
X86536608Y-59157143D01*
X86536608Y-59157143D02*
X86622322Y-59157143D01*
X86622322Y-59157143D02*
X86708037Y-59585714D01*
X86408037Y-58771428D02*
X87008037Y-58771428D01*
X86493751Y-58771428D02*
X86450894Y-58728571D01*
X86450894Y-58728571D02*
X86408037Y-58642856D01*
X86408037Y-58642856D02*
X86408037Y-58514285D01*
X86408037Y-58514285D02*
X86450894Y-58428571D01*
X86450894Y-58428571D02*
X86536608Y-58385714D01*
X86536608Y-58385714D02*
X87008037Y-58385714D01*
X86408037Y-57957142D02*
X87008037Y-57957142D01*
X86493751Y-57957142D02*
X86450894Y-57914285D01*
X86450894Y-57914285D02*
X86408037Y-57828570D01*
X86408037Y-57828570D02*
X86408037Y-57699999D01*
X86408037Y-57699999D02*
X86450894Y-57614285D01*
X86450894Y-57614285D02*
X86536608Y-57571428D01*
X86536608Y-57571428D02*
X87008037Y-57571428D01*
X87008037Y-56757142D02*
X86536608Y-56757142D01*
X86536608Y-56757142D02*
X86450894Y-56799999D01*
X86450894Y-56799999D02*
X86408037Y-56885713D01*
X86408037Y-56885713D02*
X86408037Y-57057142D01*
X86408037Y-57057142D02*
X86450894Y-57142856D01*
X86965180Y-56757142D02*
X87008037Y-56842856D01*
X87008037Y-56842856D02*
X87008037Y-57057142D01*
X87008037Y-57057142D02*
X86965180Y-57142856D01*
X86965180Y-57142856D02*
X86879465Y-57185713D01*
X86879465Y-57185713D02*
X86793751Y-57185713D01*
X86793751Y-57185713D02*
X86708037Y-57142856D01*
X86708037Y-57142856D02*
X86665180Y-57057142D01*
X86665180Y-57057142D02*
X86665180Y-56842856D01*
X86665180Y-56842856D02*
X86622322Y-56757142D01*
X86750894Y-55685713D02*
X86750894Y-55257142D01*
X87008037Y-55771427D02*
X86108037Y-55471427D01*
X86108037Y-55471427D02*
X87008037Y-55171427D01*
X87008037Y-54871427D02*
X86408037Y-54871427D01*
X86579465Y-54871427D02*
X86493751Y-54828570D01*
X86493751Y-54828570D02*
X86450894Y-54785713D01*
X86450894Y-54785713D02*
X86408037Y-54699998D01*
X86408037Y-54699998D02*
X86408037Y-54614284D01*
X86965180Y-53971427D02*
X87008037Y-54057141D01*
X87008037Y-54057141D02*
X87008037Y-54228570D01*
X87008037Y-54228570D02*
X86965180Y-54314284D01*
X86965180Y-54314284D02*
X86879465Y-54357141D01*
X86879465Y-54357141D02*
X86536608Y-54357141D01*
X86536608Y-54357141D02*
X86450894Y-54314284D01*
X86450894Y-54314284D02*
X86408037Y-54228570D01*
X86408037Y-54228570D02*
X86408037Y-54057141D01*
X86408037Y-54057141D02*
X86450894Y-53971427D01*
X86450894Y-53971427D02*
X86536608Y-53928570D01*
X86536608Y-53928570D02*
X86622322Y-53928570D01*
X86622322Y-53928570D02*
X86708037Y-54357141D01*
X87008037Y-53157141D02*
X86536608Y-53157141D01*
X86536608Y-53157141D02*
X86450894Y-53199998D01*
X86450894Y-53199998D02*
X86408037Y-53285712D01*
X86408037Y-53285712D02*
X86408037Y-53457141D01*
X86408037Y-53457141D02*
X86450894Y-53542855D01*
X86965180Y-53157141D02*
X87008037Y-53242855D01*
X87008037Y-53242855D02*
X87008037Y-53457141D01*
X87008037Y-53457141D02*
X86965180Y-53542855D01*
X86965180Y-53542855D02*
X86879465Y-53585712D01*
X86879465Y-53585712D02*
X86793751Y-53585712D01*
X86793751Y-53585712D02*
X86708037Y-53542855D01*
X86708037Y-53542855D02*
X86665180Y-53457141D01*
X86665180Y-53457141D02*
X86665180Y-53242855D01*
X86665180Y-53242855D02*
X86622322Y-53157141D01*
D13*
%TO.C,U4*%
X66694778Y-60840000D02*
X65894778Y-60840000D01*
X66694778Y-60840000D02*
X67494778Y-60840000D01*
X66694778Y-63960000D02*
X65894778Y-63960000D01*
X66694778Y-63960000D02*
X67494778Y-63960000D01*
X65394778Y-60890000D02*
X65154778Y-60560000D01*
X65634778Y-60560000D01*
X65394778Y-60890000D01*
G36*
X65394778Y-60890000D02*
G01*
X65154778Y-60560000D01*
X65634778Y-60560000D01*
X65394778Y-60890000D01*
G37*
D14*
%TO.C,D1*%
X69760000Y-53002865D02*
G75*
G03*
X69660000Y-53002865I-50000J0D01*
G01*
X69660000Y-53002865D02*
G75*
G03*
X69760000Y-53002865I50000J0D01*
G01*
D13*
%TO.C,C1*%
X66392164Y-51940000D02*
X66607836Y-51940000D01*
X66392164Y-52660000D02*
X66607836Y-52660000D01*
%TO.C,R2*%
X65841361Y-58920000D02*
X66148643Y-58920000D01*
X65841361Y-59680000D02*
X66148643Y-59680000D01*
%TO.C,J1*%
X53330000Y-63930000D02*
X52000000Y-63930000D01*
X53330000Y-62600000D02*
X53330000Y-63930000D01*
X53330000Y-61330000D02*
X53330000Y-51110000D01*
X53330000Y-61330000D02*
X50670000Y-61330000D01*
X53330000Y-51110000D02*
X50670000Y-51110000D01*
X50670000Y-61330000D02*
X50670000Y-51110000D01*
%TO.C,C2*%
X68392164Y-51940000D02*
X68607836Y-51940000D01*
X68392164Y-52660000D02*
X68607836Y-52660000D01*
%TO.C,U3*%
X60390000Y-54753820D02*
X60390000Y-54518820D01*
X60390000Y-58498820D02*
X60390000Y-58023820D01*
X60865000Y-54278820D02*
X60690000Y-54278820D01*
X60865000Y-58498820D02*
X60390000Y-58498820D01*
X64135000Y-54278820D02*
X64610000Y-54278820D01*
X64135000Y-58498820D02*
X64610000Y-58498820D01*
X64610000Y-54278820D02*
X64610000Y-54753820D01*
X64610000Y-58498820D02*
X64610000Y-58023820D01*
X60390000Y-54278820D02*
X60150000Y-53948820D01*
X60630000Y-53948820D01*
X60390000Y-54278820D01*
G36*
X60390000Y-54278820D02*
G01*
X60150000Y-53948820D01*
X60630000Y-53948820D01*
X60390000Y-54278820D01*
G37*
%TO.C,L1*%
X69060002Y-63122065D02*
X69060002Y-61917937D01*
X71780002Y-63122065D02*
X71780002Y-61917937D01*
%TO.C,C4*%
X69765000Y-58791873D02*
X69765000Y-58269369D01*
X71235000Y-58791873D02*
X71235000Y-58269369D01*
%TO.C,C5*%
X70065000Y-55417646D02*
X70065000Y-54895142D01*
X71535000Y-55417646D02*
X71535000Y-54895142D01*
%TO.C,R6*%
X70346359Y-51678406D02*
X70653641Y-51678406D01*
X70346359Y-52438406D02*
X70653641Y-52438406D01*
%TO.C,U1*%
X73100000Y-50600000D02*
X72300000Y-50600000D01*
X72300000Y-50600000D02*
X72300000Y-51400000D01*
X89100000Y-50800000D02*
X89100000Y-64000000D01*
X83700000Y-50800000D02*
X83700000Y-64000000D01*
X72500000Y-50800000D02*
X89100000Y-50800000D01*
X89300000Y-51475000D02*
X89300000Y-50625000D01*
X89300000Y-63450000D02*
X89300000Y-64200000D01*
X89100000Y-64000000D02*
X72500000Y-64000000D01*
X72500000Y-64000000D02*
X72500000Y-50800000D01*
X89300000Y-64200000D02*
X88700000Y-64200000D01*
X73100000Y-64200000D02*
X72300000Y-64200000D01*
X72300000Y-64200000D02*
X72300000Y-63400000D01*
%TO.C,SW1*%
X61730534Y-62420001D02*
X61730534Y-61630001D01*
X61130534Y-60620001D02*
X55430534Y-60620001D01*
X59880534Y-63470001D02*
X58180534Y-63470001D01*
X59680534Y-60620001D02*
X59680534Y-59330001D01*
X59680534Y-59330001D02*
X59480534Y-59120001D01*
X59480534Y-59120001D02*
X58580534Y-59120001D01*
X58380534Y-59330001D02*
X58580534Y-59120001D01*
X58380534Y-59330001D02*
X58380534Y-60620001D01*
X56880534Y-63470001D02*
X56680534Y-63470001D01*
X54830534Y-61630001D02*
X54830534Y-62420001D01*
%TO.C,R3*%
X67851357Y-58920000D02*
X68158639Y-58920000D01*
X67851357Y-59680000D02*
X68158639Y-59680000D01*
%TO.C,C3*%
X62891901Y-62661252D02*
X62891901Y-62138748D01*
X64361901Y-62661252D02*
X64361901Y-62138748D01*
%TO.C,U5*%
X56500000Y-55640000D02*
X55700000Y-55640000D01*
X56500000Y-55640000D02*
X57300000Y-55640000D01*
X56500000Y-58760000D02*
X55700000Y-58760000D01*
X56500000Y-58760000D02*
X57300000Y-58760000D01*
X55200000Y-55690000D02*
X54960000Y-55360000D01*
X55440000Y-55360000D01*
X55200000Y-55690000D01*
G36*
X55200000Y-55690000D02*
G01*
X54960000Y-55360000D01*
X55440000Y-55360000D01*
X55200000Y-55690000D01*
G37*
%TO.C,R1*%
X64346359Y-51920000D02*
X64653641Y-51920000D01*
X64346359Y-52680000D02*
X64653641Y-52680000D01*
%TD*%
M02*
