%TF.GenerationSoftware,KiCad,Pcbnew,7.0.11+dfsg-1build4*%
%TF.CreationDate,2026-08-27T19:45:56+00:00*%
%TF.ProjectId,nlink-lite,6e6c696e-6b2d-46c6-9974-652e6b696361,rev?*%
%TF.SameCoordinates,Original*%
%TF.FileFunction,Copper,L1,Top*%
%TF.FilePolarity,Positive*%
%FSLAX46Y46*%
G04 Gerber Fmt 4.6, Leading zero omitted, Abs format (unit mm)*
G04 Created by KiCad (PCBNEW 7.0.11+dfsg-1build4) date 2026-08-27 19:45:56*
%MOMM*%
%LPD*%
G01*
G04 APERTURE LIST*
G04 Aperture macros list*
%AMRoundRect*
0 Rectangle with rounded corners*
0 $1 Rounding radius*
0 $2 $3 $4 $5 $6 $7 $8 $9 X,Y pos of 4 corners*
0 Add a 4 corners polygon primitive as box body*
4,1,4,$2,$3,$4,$5,$6,$7,$8,$9,$2,$3,0*
0 Add four circle primitives for the rounded corners*
1,1,$1+$1,$2,$3*
1,1,$1+$1,$4,$5*
1,1,$1+$1,$6,$7*
1,1,$1+$1,$8,$9*
0 Add four rect primitives between the rounded corners*
20,1,$1+$1,$2,$3,$4,$5,0*
20,1,$1+$1,$4,$5,$6,$7,0*
20,1,$1+$1,$6,$7,$8,$9,0*
20,1,$1+$1,$8,$9,$2,$3,0*%
%AMFreePoly0*
4,1,6,0.725000,-0.725000,-0.725000,-0.725000,-0.725000,0.125000,-0.125000,0.725000,0.725000,0.725000,0.725000,-0.725000,0.725000,-0.725000,$1*%
G04 Aperture macros list end*
%TA.AperFunction,SMDPad,CuDef*%
%ADD10RoundRect,0.150000X-0.512500X-0.150000X0.512500X-0.150000X0.512500X0.150000X-0.512500X0.150000X0*%
%TD*%
%TA.AperFunction,SMDPad,CuDef*%
%ADD11RoundRect,0.147500X-0.147500X-0.172500X0.147500X-0.172500X0.147500X0.172500X-0.147500X0.172500X0*%
%TD*%
%TA.AperFunction,SMDPad,CuDef*%
%ADD12RoundRect,0.140000X-0.140000X-0.170000X0.140000X-0.170000X0.140000X0.170000X-0.140000X0.170000X0*%
%TD*%
%TA.AperFunction,SMDPad,CuDef*%
%ADD13RoundRect,0.135000X-0.135000X-0.185000X0.135000X-0.185000X0.135000X0.185000X-0.135000X0.185000X0*%
%TD*%
%TA.AperFunction,ComponentPad*%
%ADD14R,1.700000X1.700000*%
%TD*%
%TA.AperFunction,ComponentPad*%
%ADD15O,1.700000X1.700000*%
%TD*%
%TA.AperFunction,SMDPad,CuDef*%
%ADD16RoundRect,0.062500X-0.350000X-0.062500X0.350000X-0.062500X0.350000X0.062500X-0.350000X0.062500X0*%
%TD*%
%TA.AperFunction,SMDPad,CuDef*%
%ADD17RoundRect,0.062500X-0.062500X-0.350000X0.062500X-0.350000X0.062500X0.350000X-0.062500X0.350000X0*%
%TD*%
%TA.AperFunction,HeatsinkPad*%
%ADD18R,2.600000X2.600000*%
%TD*%
%TA.AperFunction,SMDPad,CuDef*%
%ADD19RoundRect,0.250000X1.075000X-0.375000X1.075000X0.375000X-1.075000X0.375000X-1.075000X-0.375000X0*%
%TD*%
%TA.AperFunction,SMDPad,CuDef*%
%ADD20RoundRect,0.250000X0.475000X-0.250000X0.475000X0.250000X-0.475000X0.250000X-0.475000X-0.250000X0*%
%TD*%
%TA.AperFunction,SMDPad,CuDef*%
%ADD21R,0.400000X0.800000*%
%TD*%
%TA.AperFunction,SMDPad,CuDef*%
%ADD22R,0.800000X0.400000*%
%TD*%
%TA.AperFunction,SMDPad,CuDef*%
%ADD23FreePoly0,270.000000*%
%TD*%
%TA.AperFunction,SMDPad,CuDef*%
%ADD24R,1.450000X1.450000*%
%TD*%
%TA.AperFunction,SMDPad,CuDef*%
%ADD25R,0.700000X0.700000*%
%TD*%
%TA.AperFunction,SMDPad,CuDef*%
%ADD26R,1.000000X0.800000*%
%TD*%
%TA.AperFunction,SMDPad,CuDef*%
%ADD27R,0.700000X1.500000*%
%TD*%
%TA.AperFunction,ViaPad*%
%ADD28C,0.600000*%
%TD*%
%TA.AperFunction,Conductor*%
%ADD29C,0.200000*%
%TD*%
G04 APERTURE END LIST*
D10*
%TO.P,U4,1*%
%TO.N,VBUS*%
X65557278Y-61450000D03*
%TO.P,U4,2*%
%TO.N,GND*%
X65557278Y-62400000D03*
%TO.P,U4,3*%
%TO.N,SW_NODE*%
X65557278Y-63350000D03*
%TO.P,U4,4*%
%TO.N,VBUS*%
X67832278Y-63350000D03*
%TO.P,U4,5*%
%TO.N,FB_3V3*%
X67832278Y-61450000D03*
%TD*%
D11*
%TO.P,D1,1*%
%TO.N,GND*%
X70315000Y-53002865D03*
%TO.P,D1,2*%
%TO.N,LED_A*%
X71285000Y-53002865D03*
%TD*%
D12*
%TO.P,C1,1*%
%TO.N,+3V3*%
X66020000Y-52300000D03*
%TO.P,C1,2*%
%TO.N,GND*%
X66980000Y-52300000D03*
%TD*%
D13*
%TO.P,R2,1*%
%TO.N,+3V3*%
X65485002Y-59300000D03*
%TO.P,R2,2*%
%TO.N,FB_3V3*%
X66505002Y-59300000D03*
%TD*%
D14*
%TO.P,J1,1*%
%TO.N,VBUS_IN*%
X52000000Y-62600000D03*
D15*
%TO.P,J1,2*%
%TO.N,CALC_DM*%
X52000000Y-60060000D03*
%TO.P,J1,3*%
%TO.N,CALC_DP*%
X52000000Y-57520000D03*
%TO.P,J1,4*%
%TO.N,N/C*%
X52000000Y-54980000D03*
%TO.P,J1,5*%
%TO.N,GND*%
X52000000Y-52440000D03*
%TD*%
D12*
%TO.P,C2,1*%
%TO.N,+3V3*%
X68020000Y-52300000D03*
%TO.P,C2,2*%
%TO.N,GND*%
X68980000Y-52300000D03*
%TD*%
D16*
%TO.P,U3,1*%
%TO.N,N/C*%
X60562500Y-55138820D03*
%TO.P,U3,2*%
%TO.N,GND*%
X60562500Y-55638820D03*
%TO.P,U3,3*%
%TO.N,CALC_DP*%
X60562500Y-56138820D03*
%TO.P,U3,4*%
%TO.N,CALC_DM*%
X60562500Y-56638820D03*
%TO.P,U3,5*%
%TO.N,+3V3*%
X60562500Y-57138820D03*
%TO.P,U3,6*%
X60562500Y-57638820D03*
D17*
%TO.P,U3,7*%
X61250000Y-58326320D03*
%TO.P,U3,8*%
%TO.N,VBUS*%
X61750000Y-58326320D03*
%TO.P,U3,9*%
%TO.N,CP_RSTn*%
X62250000Y-58326320D03*
%TO.P,U3,10*%
%TO.N,N/C*%
X62750000Y-58326320D03*
%TO.P,U3,11*%
X63250000Y-58326320D03*
%TO.P,U3,12*%
X63750000Y-58326320D03*
D16*
%TO.P,U3,13*%
X64437500Y-57638820D03*
%TO.P,U3,14*%
X64437500Y-57138820D03*
%TO.P,U3,15*%
X64437500Y-56638820D03*
%TO.P,U3,16*%
X64437500Y-56138820D03*
%TO.P,U3,17*%
X64437500Y-55638820D03*
%TO.P,U3,18*%
X64437500Y-55138820D03*
D17*
%TO.P,U3,19*%
X63750000Y-54451320D03*
%TO.P,U3,20*%
%TO.N,UART_TX*%
X63250000Y-54451320D03*
%TO.P,U3,21*%
%TO.N,UART_RX*%
X62750000Y-54451320D03*
%TO.P,U3,22*%
%TO.N,N/C*%
X62250000Y-54451320D03*
%TO.P,U3,23*%
X61750000Y-54451320D03*
%TO.P,U3,24*%
X61250000Y-54451320D03*
D18*
%TO.P,U3,25*%
%TO.N,GND*%
X62500000Y-56388820D03*
%TD*%
D19*
%TO.P,L1,1*%
%TO.N,SW_NODE*%
X70420002Y-63920001D03*
%TO.P,L1,2*%
%TO.N,+3V3*%
X70420002Y-61120001D03*
%TD*%
D20*
%TO.P,C4,1*%
%TO.N,+3V3*%
X70500000Y-59480621D03*
%TO.P,C4,2*%
%TO.N,GND*%
X70500000Y-57580621D03*
%TD*%
%TO.P,C5,1*%
%TO.N,+3V3*%
X70800000Y-56106394D03*
%TO.P,C5,2*%
%TO.N,GND*%
X70800000Y-54206394D03*
%TD*%
D13*
%TO.P,R6,1*%
%TO.N,STATUS_LED*%
X69990000Y-52058406D03*
%TO.P,R6,2*%
%TO.N,LED_A*%
X71010000Y-52058406D03*
%TD*%
D21*
%TO.P,U1,1*%
%TO.N,GND*%
X82100000Y-51500000D03*
%TO.P,U1,2*%
X81300000Y-51500000D03*
%TO.P,U1,3*%
%TO.N,+3V3*%
X80500000Y-51500000D03*
%TO.P,U1,4*%
%TO.N,N/C*%
X79700000Y-51500000D03*
%TO.P,U1,5*%
X78900000Y-51500000D03*
%TO.P,U1,6*%
X78100000Y-51500000D03*
%TO.P,U1,7*%
X77300000Y-51500000D03*
%TO.P,U1,8*%
%TO.N,EN*%
X76500000Y-51500000D03*
%TO.P,U1,9*%
%TO.N,N/C*%
X75700000Y-51500000D03*
%TO.P,U1,10*%
X74900000Y-51500000D03*
%TO.P,U1,11*%
%TO.N,GND*%
X74100000Y-51500000D03*
D22*
%TO.P,U1,12*%
%TO.N,IO0*%
X73200000Y-52600000D03*
%TO.P,U1,13*%
%TO.N,N/C*%
X73200000Y-53400000D03*
%TO.P,U1,14*%
%TO.N,GND*%
X73200000Y-54200000D03*
%TO.P,U1,15*%
%TO.N,N/C*%
X73200000Y-55000000D03*
%TO.P,U1,16*%
X73200000Y-55800000D03*
%TO.P,U1,17*%
X73200000Y-56600000D03*
%TO.P,U1,18*%
X73200000Y-57400000D03*
%TO.P,U1,19*%
X73200000Y-58200000D03*
%TO.P,U1,20*%
%TO.N,UART_RX*%
X73200000Y-59000000D03*
%TO.P,U1,21*%
%TO.N,UART_TX*%
X73200000Y-59800000D03*
%TO.P,U1,22*%
%TO.N,STATUS_LED*%
X73200000Y-60600000D03*
%TO.P,U1,23*%
%TO.N,N/C*%
X73200000Y-61400000D03*
%TO.P,U1,24*%
X73200000Y-62200000D03*
D21*
%TO.P,U1,25*%
X74100000Y-63300000D03*
%TO.P,U1,26*%
%TO.N,USB_DM*%
X74900000Y-63300000D03*
%TO.P,U1,27*%
%TO.N,USB_DP*%
X75700000Y-63300000D03*
%TO.P,U1,28*%
%TO.N,N/C*%
X76500000Y-63300000D03*
%TO.P,U1,29*%
X77300000Y-63300000D03*
%TO.P,U1,30*%
X78100000Y-63300000D03*
%TO.P,U1,31*%
X78900000Y-63300000D03*
%TO.P,U1,32*%
X79700000Y-63300000D03*
%TO.P,U1,33*%
X80500000Y-63300000D03*
%TO.P,U1,34*%
X81300000Y-63300000D03*
%TO.P,U1,35*%
X82100000Y-63300000D03*
D22*
%TO.P,U1,36*%
%TO.N,GND*%
X83000000Y-62200000D03*
%TO.P,U1,37*%
X83000000Y-61400000D03*
%TO.P,U1,38*%
X83000000Y-60600000D03*
%TO.P,U1,39*%
X83000000Y-59800000D03*
%TO.P,U1,40*%
X83000000Y-59000000D03*
%TO.P,U1,41*%
X83000000Y-58200000D03*
%TO.P,U1,42*%
X83000000Y-57400000D03*
%TO.P,U1,43*%
X83000000Y-56600000D03*
%TO.P,U1,44*%
X83000000Y-55800000D03*
%TO.P,U1,45*%
X83000000Y-55000000D03*
%TO.P,U1,46*%
X83000000Y-54200000D03*
%TO.P,U1,47*%
X83000000Y-53400000D03*
%TO.P,U1,48*%
X83000000Y-52600000D03*
D23*
%TO.P,U1,49*%
X80075000Y-55425000D03*
D24*
X78100000Y-55425000D03*
X76125000Y-55425000D03*
X80075000Y-57400000D03*
X78100000Y-57400000D03*
X76125000Y-57400000D03*
X80075000Y-59375000D03*
X78100000Y-59375000D03*
X76125000Y-59375000D03*
D25*
%TO.P,U1,50*%
X83050000Y-63350000D03*
%TO.P,U1,51*%
X73150000Y-63350000D03*
%TO.P,U1,52*%
X73150000Y-51450000D03*
%TO.P,U1,53*%
X83050000Y-51450000D03*
%TD*%
D26*
%TO.P,SW1,*%
%TO.N,*%
X61930534Y-63130001D03*
X61930534Y-60920001D03*
X54630534Y-63130001D03*
X54630534Y-60920001D03*
D27*
%TO.P,SW1,1*%
%TO.N,VBUS*%
X60530534Y-63780001D03*
%TO.P,SW1,2*%
%TO.N,VBUS_IN*%
X57530534Y-63780001D03*
%TO.P,SW1,3*%
%TO.N,N/C*%
X56030534Y-63780001D03*
%TD*%
D13*
%TO.P,R3,1*%
%TO.N,FB_3V3*%
X67494998Y-59300000D03*
%TO.P,R3,2*%
%TO.N,GND*%
X68514998Y-59300000D03*
%TD*%
D20*
%TO.P,C3,1*%
%TO.N,VBUS*%
X63626901Y-63350000D03*
%TO.P,C3,2*%
%TO.N,GND*%
X63626901Y-61450000D03*
%TD*%
D10*
%TO.P,U5,1*%
%TO.N,CALC_DM*%
X55362500Y-56250000D03*
%TO.P,U5,2*%
%TO.N,GND*%
X55362500Y-57200000D03*
%TO.P,U5,3*%
%TO.N,CALC_DP*%
X55362500Y-58150000D03*
%TO.P,U5,4*%
X57637500Y-58150000D03*
%TO.P,U5,5*%
%TO.N,VBUS*%
X57637500Y-57200000D03*
%TO.P,U5,6*%
%TO.N,CALC_DM*%
X57637500Y-56250000D03*
%TD*%
D13*
%TO.P,R1,1*%
%TO.N,+3V3*%
X63990000Y-52300000D03*
%TO.P,R1,2*%
%TO.N,CP_RSTn*%
X65010000Y-52300000D03*
%TD*%
D28*
%TO.N,+3V3*%
X72044200Y-57579300D03*
X60592700Y-58270700D03*
X67307200Y-57661500D03*
X74973300Y-54354400D03*
%TO.N,CALC_DM*%
X56497200Y-55787600D03*
%TO.N,CALC_DP*%
X59604800Y-56128200D03*
%TO.N,EN*%
X76822800Y-50585400D03*
%TO.N,GND*%
X80190500Y-53509500D03*
%TO.N,IO0*%
X78087500Y-52590700D03*
%TO.N,STATUS_LED*%
X74107400Y-60590100D03*
X70820000Y-51169000D03*
%TO.N,UART_RX*%
X72292400Y-58923400D03*
X64433000Y-53186700D03*
%TO.N,UART_TX*%
X72273000Y-59800000D03*
X64399600Y-54012700D03*
%TO.N,USB_DM*%
X74900000Y-62386000D03*
%TO.N,USB_DP*%
X75907600Y-62390500D03*
%TD*%
D29*
%TO.N,+3V3*%
X60592700Y-58270700D02*
X60592700Y-57669000D01*
X68911100Y-56057600D02*
X67407600Y-54554100D01*
X61194400Y-58270700D02*
X60592700Y-58270700D01*
X66636900Y-58148000D02*
X66820700Y-58148000D01*
X68911100Y-56057600D02*
X70800000Y-56057600D01*
X66820700Y-58148000D02*
X67307200Y-57661500D01*
X70420000Y-59538900D02*
X70500000Y-59458900D01*
X64619900Y-51670100D02*
X65390100Y-51670100D01*
X66020000Y-52300000D02*
X66632400Y-52912400D01*
X80500000Y-52201900D02*
X78347500Y-54354400D01*
X70500000Y-59458900D02*
X72044200Y-57914700D01*
X78347500Y-54354400D02*
X74973300Y-54354400D01*
X67307200Y-57661500D02*
X68911100Y-56057600D01*
X61250000Y-58326300D02*
X61194400Y-58270700D01*
X65390100Y-51670100D02*
X66020000Y-52300000D01*
X72044200Y-57914700D02*
X72044200Y-57579300D01*
X63990000Y-52300000D02*
X64619900Y-51670100D01*
X60592700Y-57669000D02*
X60562500Y-57638800D01*
X65485000Y-59300000D02*
X66636900Y-58148100D01*
X60562500Y-57638800D02*
X60562500Y-57138800D01*
X66636900Y-58148100D02*
X66636900Y-58148000D01*
X67407600Y-52912400D02*
X68020000Y-52300000D01*
X67407600Y-54554100D02*
X67407600Y-52912400D01*
X80500000Y-51500000D02*
X80500000Y-52201900D01*
X66632400Y-52912400D02*
X67407600Y-52912400D01*
X70420000Y-61120000D02*
X70420000Y-59538900D01*
%TO.N,CALC_DM*%
X56497200Y-56250000D02*
X55362500Y-56250000D01*
X59355600Y-56730100D02*
X59854100Y-56730100D01*
X58875500Y-56250000D02*
X59355600Y-56730100D01*
X56497200Y-56250000D02*
X56497200Y-55787600D01*
X59945400Y-56638800D02*
X60562500Y-56638800D01*
X59854100Y-56730100D02*
X59945400Y-56638800D01*
X57637500Y-56250000D02*
X56497200Y-56250000D01*
X57637500Y-56250000D02*
X58875500Y-56250000D01*
%TO.N,CALC_DP*%
X53781900Y-58150000D02*
X53151900Y-57520000D01*
X52000000Y-57520000D02*
X53151900Y-57520000D01*
X60562500Y-56138800D02*
X60551900Y-56128200D01*
X55362500Y-58150000D02*
X53781900Y-58150000D01*
X57637500Y-58150000D02*
X55362500Y-58150000D01*
X60551900Y-56128200D02*
X59604800Y-56128200D01*
%TO.N,CP_RSTn*%
X63949800Y-59086600D02*
X65153700Y-57882700D01*
X62250000Y-58755000D02*
X62581600Y-59086600D01*
X62250000Y-58326300D02*
X62250000Y-58755000D01*
X65153700Y-52443700D02*
X65010000Y-52300000D01*
X65153700Y-57882700D02*
X65153700Y-52443700D01*
X62581600Y-59086600D02*
X63949800Y-59086600D01*
%TO.N,EN*%
X76500000Y-51500000D02*
X76500000Y-50798100D01*
X76610100Y-50798100D02*
X76500000Y-50798100D01*
X76822800Y-50585400D02*
X76610100Y-50798100D01*
%TO.N,FB_3V3*%
X67495000Y-59300000D02*
X67832300Y-59637300D01*
X67832300Y-59637300D02*
X67832300Y-61450000D01*
X66505000Y-59300000D02*
X67495000Y-59300000D01*
%TO.N,GND*%
X67625100Y-51654900D02*
X66980000Y-52300000D01*
X53151900Y-53224200D02*
X53151900Y-52440000D01*
X83000000Y-59000000D02*
X83000000Y-58200000D01*
X83050000Y-63350000D02*
X83050000Y-62250000D01*
X54379300Y-56578800D02*
X54379300Y-55874600D01*
X78100000Y-57400000D02*
X79048100Y-57400000D01*
X76125000Y-57400000D02*
X76125000Y-58348100D01*
X59836500Y-55346200D02*
X60129100Y-55638800D01*
X55090800Y-55163100D02*
X53151900Y-53224200D01*
X70895300Y-57558900D02*
X70500000Y-57558900D01*
X78534600Y-58861500D02*
X79048100Y-59375000D01*
X83050000Y-62250000D02*
X83000000Y-62200000D01*
X78100000Y-57400000D02*
X78100000Y-58348100D01*
X52000000Y-52440000D02*
X53151900Y-52440000D01*
X82298100Y-52224500D02*
X82298100Y-52600000D01*
X65557300Y-62400000D02*
X64576900Y-62400000D01*
X73150000Y-64001900D02*
X83050000Y-64001900D01*
X83000000Y-61400000D02*
X83000000Y-62200000D01*
X68334900Y-51654900D02*
X67625100Y-51654900D01*
X66980000Y-52300000D02*
X65933900Y-51253900D01*
X80075000Y-59375000D02*
X79048100Y-59375000D01*
X83050000Y-51450000D02*
X82398100Y-51450000D01*
X71848800Y-54157600D02*
X71848800Y-56605400D01*
X82398100Y-51552800D02*
X82398100Y-51450000D01*
X78100000Y-57400000D02*
X78100000Y-55425000D01*
X71848800Y-56605400D02*
X70895300Y-57558900D01*
X82100000Y-52026400D02*
X82298100Y-52224500D01*
X83000000Y-54200000D02*
X83000000Y-55000000D01*
X76125000Y-57400000D02*
X76125000Y-56373100D01*
X83000000Y-52600000D02*
X82298100Y-52600000D01*
X60129100Y-55638800D02*
X60562500Y-55638800D01*
X78100000Y-55425000D02*
X79048100Y-55425000D01*
X82100000Y-51500000D02*
X82100000Y-51850900D01*
X83000000Y-55800000D02*
X83000000Y-55000000D01*
X78100000Y-58861500D02*
X78100000Y-58348100D01*
X74100000Y-51500000D02*
X74100000Y-50798100D01*
X72491400Y-54157600D02*
X72491400Y-52108600D01*
X83050000Y-63350000D02*
X83050000Y-64001900D01*
X75098100Y-55425000D02*
X75098100Y-55396200D01*
X70315000Y-53672600D02*
X70315000Y-52937200D01*
X70315000Y-52937200D02*
X69617200Y-52937200D01*
X73200000Y-54200000D02*
X72582700Y-54200000D01*
X78100000Y-59375000D02*
X78100000Y-58861500D01*
X73150000Y-63350000D02*
X73150000Y-64001900D01*
X83000000Y-52600000D02*
X83000000Y-53400000D01*
X68758900Y-59300000D02*
X68515000Y-59300000D01*
X83000000Y-59800000D02*
X83000000Y-59000000D01*
X80075000Y-55425000D02*
X80075000Y-53625000D01*
X83000000Y-56600000D02*
X83000000Y-55800000D01*
X81300000Y-52201900D02*
X82100000Y-52201900D01*
X76125000Y-55425000D02*
X75098100Y-55425000D01*
X72491400Y-52108600D02*
X73150000Y-51450000D01*
X80075000Y-55425000D02*
X79048100Y-55425000D01*
X61750000Y-55638800D02*
X62500000Y-56388800D01*
X69617200Y-52937200D02*
X68980000Y-52300000D01*
X65644200Y-62313100D02*
X65557300Y-62400000D01*
X83000000Y-56600000D02*
X83000000Y-57400000D01*
X73150000Y-51450000D02*
X73150000Y-50798100D01*
X73200000Y-54200000D02*
X73901900Y-54200000D01*
X70800000Y-54157600D02*
X70315000Y-53672600D01*
X54379300Y-55874600D02*
X55090800Y-55163100D01*
X82100000Y-51850900D02*
X82100000Y-52026400D01*
X65933900Y-51253900D02*
X63516900Y-51253900D01*
X83000000Y-53400000D02*
X83000000Y-54200000D01*
X76125000Y-59375000D02*
X76125000Y-58348100D01*
X81300000Y-52400000D02*
X81300000Y-52201900D01*
X72582700Y-54200000D02*
X72533800Y-54200000D01*
X78100000Y-58861500D02*
X78534600Y-58861500D01*
X83000000Y-57400000D02*
X83000000Y-58200000D01*
X55090800Y-55163100D02*
X59836500Y-55163100D01*
X63516900Y-51253900D02*
X59836500Y-54934300D01*
X55362500Y-57200000D02*
X55000500Y-57200000D01*
X70500000Y-57558900D02*
X68758900Y-59300000D01*
X72498100Y-63350000D02*
X71461200Y-62313100D01*
X80075000Y-53625000D02*
X80190500Y-53509500D01*
X59836500Y-55163100D02*
X59836500Y-55346200D01*
X64576900Y-62400000D02*
X63626900Y-61450000D01*
X81300000Y-52201900D02*
X81300000Y-51500000D01*
X60562500Y-55638800D02*
X61750000Y-55638800D01*
X55000500Y-57200000D02*
X54379300Y-56578800D01*
X76125000Y-55425000D02*
X76125000Y-56373100D01*
X72491400Y-54157600D02*
X71848800Y-54157600D01*
X83000000Y-60600000D02*
X83000000Y-61400000D01*
X76125000Y-57400000D02*
X78100000Y-57400000D01*
X59836500Y-54934300D02*
X59836500Y-55163100D01*
X71461200Y-62313100D02*
X65644200Y-62313100D01*
X71848800Y-54157600D02*
X70800000Y-54157600D01*
X82100000Y-51850900D02*
X82398100Y-51552800D01*
X73150000Y-63350000D02*
X72498100Y-63350000D01*
X80190500Y-53509500D02*
X81300000Y-52400000D01*
X73150000Y-50798100D02*
X74100000Y-50798100D01*
X83000000Y-60600000D02*
X83000000Y-59800000D01*
X75098100Y-55396200D02*
X73901900Y-54200000D01*
X82100000Y-52026400D02*
X82100000Y-52201900D01*
X72533800Y-54200000D02*
X72491400Y-54157600D01*
X80075000Y-57400000D02*
X79048100Y-57400000D01*
X68980000Y-52300000D02*
X68334900Y-51654900D01*
%TO.N,IO0*%
X78087500Y-52590700D02*
X73911200Y-52590700D01*
X73200000Y-52600000D02*
X73901900Y-52600000D01*
X73911200Y-52590700D02*
X73901900Y-52600000D01*
%TO.N,LED_A*%
X71285000Y-52274000D02*
X71010000Y-51999000D01*
X71285000Y-52937200D02*
X71285000Y-52274000D01*
%TO.N,STATUS_LED*%
X74097500Y-60600000D02*
X74107400Y-60590100D01*
X73200000Y-60600000D02*
X74097500Y-60600000D01*
X70820000Y-51169000D02*
X69990000Y-51999000D01*
%TO.N,SW_NODE*%
X69231600Y-62731600D02*
X70420000Y-63920000D01*
X66309400Y-63350000D02*
X66927800Y-62731600D01*
X66927800Y-62731600D02*
X69231600Y-62731600D01*
X65557300Y-63350000D02*
X66309400Y-63350000D01*
%TO.N,UART_RX*%
X72292400Y-58923400D02*
X72421500Y-58923400D01*
X73200000Y-59000000D02*
X72498100Y-59000000D01*
X62750000Y-53929900D02*
X63493200Y-53186700D01*
X63493200Y-53186700D02*
X64433000Y-53186700D01*
X62750000Y-54451300D02*
X62750000Y-53929900D01*
X72421500Y-58923400D02*
X72498100Y-59000000D01*
%TO.N,UART_TX*%
X72498100Y-59800000D02*
X72273000Y-59800000D01*
X64123600Y-53736700D02*
X64399600Y-54012700D01*
X63526200Y-53736700D02*
X64123600Y-53736700D01*
X63250000Y-54012900D02*
X63526200Y-53736700D01*
X63250000Y-54451300D02*
X63250000Y-54012900D01*
X73200000Y-59800000D02*
X72498100Y-59800000D01*
%TO.N,USB_DM*%
X74900000Y-62386000D02*
X74900000Y-63300000D01*
%TO.N,USB_DP*%
X75700000Y-63300000D02*
X75700000Y-62598100D01*
X75907600Y-62390500D02*
X75700000Y-62598100D01*
%TO.N,VBUS*%
X64230400Y-63953500D02*
X67228800Y-63953500D01*
X60922000Y-59687400D02*
X60922000Y-62336600D01*
X62613500Y-62336600D02*
X63626900Y-63350000D01*
X61750000Y-58859400D02*
X60922000Y-59687400D01*
X61750000Y-58326300D02*
X61750000Y-58859400D01*
X60530500Y-63780000D02*
X60530500Y-62728100D01*
X58434600Y-57200000D02*
X57637500Y-57200000D01*
X60922000Y-62336600D02*
X62613500Y-62336600D01*
X61750000Y-58859400D02*
X62816700Y-59926100D01*
X60922000Y-62336600D02*
X60530500Y-62728100D01*
X64033400Y-59926100D02*
X65557300Y-61450000D01*
X67228800Y-63953500D02*
X67832300Y-63350000D01*
X63626900Y-63350000D02*
X64230400Y-63953500D01*
X60922000Y-59687400D02*
X58434600Y-57200000D01*
X62816700Y-59926100D02*
X64033400Y-59926100D01*
%TO.N,VBUS_IN*%
X57811700Y-61576700D02*
X57811700Y-62446900D01*
X57244800Y-61009800D02*
X57811700Y-61576700D01*
X52000000Y-62600000D02*
X53151900Y-62600000D01*
X57530500Y-63780000D02*
X57530500Y-62728100D01*
X53151900Y-62600000D02*
X53797100Y-61954800D01*
X57811700Y-62446900D02*
X57530500Y-62728100D01*
X53797100Y-61954800D02*
X55428800Y-61954800D01*
X56373800Y-61009800D02*
X57244800Y-61009800D01*
X55428800Y-61954800D02*
X56373800Y-61009800D01*
%TD*%
%TA.AperFunction,Conductor*%
%TO.N,GND*%
G36*
X83243039Y-51219685D02*
G01*
X83288794Y-51272489D01*
X83300000Y-51324000D01*
X83300000Y-52219000D01*
X83280315Y-52286039D01*
X83227511Y-52331794D01*
X83206672Y-52336327D01*
X83200000Y-52343000D01*
X83200000Y-62457000D01*
X83209976Y-62466976D01*
X83243039Y-62476685D01*
X83288794Y-62529489D01*
X83300000Y-62581000D01*
X83300000Y-64200000D01*
X83309976Y-64209976D01*
X83343039Y-64219685D01*
X83388794Y-64272489D01*
X83400000Y-64324000D01*
X83400000Y-64375500D01*
X83380315Y-64442539D01*
X83327511Y-64488294D01*
X83276000Y-64499500D01*
X72367033Y-64499500D01*
X72299994Y-64479815D01*
X72254239Y-64427011D01*
X72243675Y-64362899D01*
X72245501Y-64345022D01*
X72245501Y-64345019D01*
X72245502Y-64345010D01*
X72245501Y-64157203D01*
X72265185Y-64090166D01*
X72317989Y-64044411D01*
X72387147Y-64034467D01*
X72443812Y-64057939D01*
X72557906Y-64143350D01*
X72557913Y-64143354D01*
X72692620Y-64193596D01*
X72692627Y-64193598D01*
X72752155Y-64199999D01*
X72752172Y-64200000D01*
X72900000Y-64200000D01*
X72900000Y-63224000D01*
X72919685Y-63156961D01*
X72972489Y-63111206D01*
X73024000Y-63100000D01*
X73275500Y-63100000D01*
X73342539Y-63119685D01*
X73388294Y-63172489D01*
X73399500Y-63224000D01*
X73399500Y-63747863D01*
X73399679Y-63751180D01*
X73399572Y-63751185D01*
X73400000Y-63759156D01*
X73400000Y-64200000D01*
X73547828Y-64200000D01*
X73547844Y-64199999D01*
X73607372Y-64193598D01*
X73607375Y-64193597D01*
X73655949Y-64175480D01*
X73725640Y-64170494D01*
X73742610Y-64175477D01*
X73792517Y-64194091D01*
X73852127Y-64200500D01*
X74347872Y-64200499D01*
X74407483Y-64194091D01*
X74456665Y-64175746D01*
X74526355Y-64170761D01*
X74543333Y-64175747D01*
X74592508Y-64194088D01*
X74592511Y-64194089D01*
X74592517Y-64194091D01*
X74652127Y-64200500D01*
X75147872Y-64200499D01*
X75207483Y-64194091D01*
X75256665Y-64175746D01*
X75326355Y-64170761D01*
X75343333Y-64175747D01*
X75392508Y-64194088D01*
X75392511Y-64194089D01*
X75392517Y-64194091D01*
X75452127Y-64200500D01*
X75947872Y-64200499D01*
X76007483Y-64194091D01*
X76056665Y-64175746D01*
X76126355Y-64170761D01*
X76143333Y-64175747D01*
X76192508Y-64194088D01*
X76192511Y-64194089D01*
X76192517Y-64194091D01*
X76252127Y-64200500D01*
X76747872Y-64200499D01*
X76807483Y-64194091D01*
X76856665Y-64175746D01*
X76926355Y-64170761D01*
X76943333Y-64175747D01*
X76992508Y-64194088D01*
X76992511Y-64194089D01*
X76992517Y-64194091D01*
X77052127Y-64200500D01*
X77547872Y-64200499D01*
X77607483Y-64194091D01*
X77656665Y-64175746D01*
X77726355Y-64170761D01*
X77743333Y-64175747D01*
X77792508Y-64194088D01*
X77792511Y-64194089D01*
X77792517Y-64194091D01*
X77852127Y-64200500D01*
X78347872Y-64200499D01*
X78407483Y-64194091D01*
X78456665Y-64175746D01*
X78526355Y-64170761D01*
X78543333Y-64175747D01*
X78592508Y-64194088D01*
X78592511Y-64194089D01*
X78592517Y-64194091D01*
X78652127Y-64200500D01*
X79147872Y-64200499D01*
X79207483Y-64194091D01*
X79256665Y-64175746D01*
X79326355Y-64170761D01*
X79343333Y-64175747D01*
X79392508Y-64194088D01*
X79392511Y-64194089D01*
X79392517Y-64194091D01*
X79452127Y-64200500D01*
X79947872Y-64200499D01*
X80007483Y-64194091D01*
X80056665Y-64175746D01*
X80126355Y-64170761D01*
X80143333Y-64175747D01*
X80192508Y-64194088D01*
X80192511Y-64194089D01*
X80192517Y-64194091D01*
X80252127Y-64200500D01*
X80747872Y-64200499D01*
X80807483Y-64194091D01*
X80856665Y-64175746D01*
X80926355Y-64170761D01*
X80943333Y-64175747D01*
X80992508Y-64194088D01*
X80992511Y-64194089D01*
X80992517Y-64194091D01*
X81052127Y-64200500D01*
X81547872Y-64200499D01*
X81607483Y-64194091D01*
X81656665Y-64175746D01*
X81726355Y-64170761D01*
X81743333Y-64175747D01*
X81792508Y-64194088D01*
X81792511Y-64194089D01*
X81792517Y-64194091D01*
X81852127Y-64200500D01*
X82347872Y-64200499D01*
X82407483Y-64194091D01*
X82457382Y-64175479D01*
X82527069Y-64170494D01*
X82544048Y-64175479D01*
X82592628Y-64193598D01*
X82592627Y-64193598D01*
X82652155Y-64199999D01*
X82652172Y-64200000D01*
X82800000Y-64200000D01*
X82800000Y-63759167D01*
X82800427Y-63751188D01*
X82800322Y-63751183D01*
X82800497Y-63747898D01*
X82800500Y-63747873D01*
X82800499Y-62852128D01*
X82800498Y-62852127D01*
X82800321Y-62848805D01*
X82800426Y-62848799D01*
X82800000Y-62840836D01*
X82800000Y-62400000D01*
X82359167Y-62400000D01*
X82351188Y-62399572D01*
X82351183Y-62399678D01*
X82347879Y-62399500D01*
X82347873Y-62399500D01*
X82347866Y-62399500D01*
X81852129Y-62399500D01*
X81852123Y-62399501D01*
X81792516Y-62405908D01*
X81743332Y-62424253D01*
X81673640Y-62429237D01*
X81656667Y-62424253D01*
X81607486Y-62405910D01*
X81607485Y-62405909D01*
X81607483Y-62405909D01*
X81547873Y-62399500D01*
X81547863Y-62399500D01*
X81052129Y-62399500D01*
X81052123Y-62399501D01*
X80992516Y-62405908D01*
X80943332Y-62424253D01*
X80873640Y-62429237D01*
X80856667Y-62424253D01*
X80807486Y-62405910D01*
X80807485Y-62405909D01*
X80807483Y-62405909D01*
X80747873Y-62399500D01*
X80747863Y-62399500D01*
X80252129Y-62399500D01*
X80252123Y-62399501D01*
X80192516Y-62405908D01*
X80143332Y-62424253D01*
X80073640Y-62429237D01*
X80056667Y-62424253D01*
X80007486Y-62405910D01*
X80007485Y-62405909D01*
X80007483Y-62405909D01*
X79947873Y-62399500D01*
X79947863Y-62399500D01*
X79452129Y-62399500D01*
X79452123Y-62399501D01*
X79392516Y-62405908D01*
X79343332Y-62424253D01*
X79273640Y-62429237D01*
X79256667Y-62424253D01*
X79207486Y-62405910D01*
X79207485Y-62405909D01*
X79207483Y-62405909D01*
X79147873Y-62399500D01*
X79147863Y-62399500D01*
X78652129Y-62399500D01*
X78652123Y-62399501D01*
X78592516Y-62405908D01*
X78543332Y-62424253D01*
X78473640Y-62429237D01*
X78456667Y-62424253D01*
X78407486Y-62405910D01*
X78407485Y-62405909D01*
X78407483Y-62405909D01*
X78347873Y-62399500D01*
X78347863Y-62399500D01*
X77852129Y-62399500D01*
X77852123Y-62399501D01*
X77792516Y-62405908D01*
X77743332Y-62424253D01*
X77673640Y-62429237D01*
X77656667Y-62424253D01*
X77607486Y-62405910D01*
X77607485Y-62405909D01*
X77607483Y-62405909D01*
X77547873Y-62399500D01*
X77547863Y-62399500D01*
X77052129Y-62399500D01*
X77052123Y-62399501D01*
X76992516Y-62405908D01*
X76943332Y-62424253D01*
X76873640Y-62429237D01*
X76856667Y-62424253D01*
X76807482Y-62405908D01*
X76799938Y-62404126D01*
X76800564Y-62401473D01*
X76748050Y-62379721D01*
X76708201Y-62322329D01*
X76702636Y-62297052D01*
X76692969Y-62211250D01*
X76692968Y-62211245D01*
X76663111Y-62125918D01*
X76633389Y-62040978D01*
X76630561Y-62036478D01*
X76577560Y-61952127D01*
X76537416Y-61888238D01*
X76409862Y-61760684D01*
X76341847Y-61717947D01*
X76257123Y-61664711D01*
X76086854Y-61605131D01*
X76086849Y-61605130D01*
X76041317Y-61600000D01*
X82100000Y-61600000D01*
X82100000Y-61647844D01*
X82106401Y-61707372D01*
X82106403Y-61707380D01*
X82124786Y-61756667D01*
X82129770Y-61826359D01*
X82124786Y-61843333D01*
X82106403Y-61892619D01*
X82106401Y-61892627D01*
X82100000Y-61952155D01*
X82100000Y-62000000D01*
X82800000Y-62000000D01*
X82800000Y-61600000D01*
X82100000Y-61600000D01*
X76041317Y-61600000D01*
X75907604Y-61584935D01*
X75907596Y-61584935D01*
X75728350Y-61605130D01*
X75728337Y-61605133D01*
X75558079Y-61664709D01*
X75473351Y-61717947D01*
X75406114Y-61736947D01*
X75341408Y-61717947D01*
X75249522Y-61660211D01*
X75079254Y-61600631D01*
X75079249Y-61600630D01*
X74900004Y-61580435D01*
X74899996Y-61580435D01*
X74720750Y-61600630D01*
X74720745Y-61600631D01*
X74550476Y-61660211D01*
X74397739Y-61756183D01*
X74287562Y-61866360D01*
X74226239Y-61899844D01*
X74156547Y-61894860D01*
X74100614Y-61852988D01*
X74076197Y-61787524D01*
X74083700Y-61735343D01*
X74094089Y-61707488D01*
X74094088Y-61707488D01*
X74094091Y-61707483D01*
X74100500Y-61647873D01*
X74100499Y-61507254D01*
X74120183Y-61440216D01*
X74172987Y-61394461D01*
X74210608Y-61384036D01*
X74286655Y-61375468D01*
X74456922Y-61315889D01*
X74609662Y-61219916D01*
X74737216Y-61092362D01*
X74833189Y-60939622D01*
X74882045Y-60800000D01*
X82100000Y-60800000D01*
X82100000Y-60847844D01*
X82106401Y-60907372D01*
X82106403Y-60907380D01*
X82124786Y-60956667D01*
X82129770Y-61026359D01*
X82124786Y-61043333D01*
X82106403Y-61092619D01*
X82106401Y-61092627D01*
X82100000Y-61152155D01*
X82100000Y-61200000D01*
X82800000Y-61200000D01*
X82800000Y-60800000D01*
X82100000Y-60800000D01*
X74882045Y-60800000D01*
X74892768Y-60769355D01*
X74896320Y-60737830D01*
X74912965Y-60590103D01*
X74912965Y-60590096D01*
X74892769Y-60410850D01*
X74892768Y-60410845D01*
X74865242Y-60332180D01*
X74833189Y-60240578D01*
X74737216Y-60087838D01*
X74649378Y-60000000D01*
X82100000Y-60000000D01*
X82100000Y-60047844D01*
X82106401Y-60107372D01*
X82106403Y-60107380D01*
X82124786Y-60156667D01*
X82129770Y-60226359D01*
X82124786Y-60243333D01*
X82106403Y-60292619D01*
X82106401Y-60292627D01*
X82100000Y-60352155D01*
X82100000Y-60400000D01*
X82800000Y-60400000D01*
X82800000Y-60000000D01*
X82100000Y-60000000D01*
X74649378Y-60000000D01*
X74609662Y-59960284D01*
X74487331Y-59883418D01*
X74456923Y-59864311D01*
X74286652Y-59804731D01*
X74210614Y-59796163D01*
X74146201Y-59769096D01*
X74106646Y-59711501D01*
X74100499Y-59672943D01*
X74100499Y-59552129D01*
X74100498Y-59552123D01*
X74100182Y-59549180D01*
X74094091Y-59492517D01*
X74094090Y-59492514D01*
X74075747Y-59443334D01*
X74070762Y-59373643D01*
X74075747Y-59356665D01*
X74094089Y-59307488D01*
X74094088Y-59307488D01*
X74094091Y-59307483D01*
X74100500Y-59247873D01*
X74100500Y-59200000D01*
X82100000Y-59200000D01*
X82100000Y-59247844D01*
X82106401Y-59307372D01*
X82106403Y-59307380D01*
X82124786Y-59356667D01*
X82129770Y-59426359D01*
X82124786Y-59443333D01*
X82106403Y-59492619D01*
X82106401Y-59492627D01*
X82100000Y-59552155D01*
X82100000Y-59600000D01*
X82800000Y-59600000D01*
X82800000Y-59200000D01*
X82100000Y-59200000D01*
X74100500Y-59200000D01*
X74100499Y-58752128D01*
X74094091Y-58692517D01*
X74087385Y-58674538D01*
X74075747Y-58643334D01*
X74070762Y-58573643D01*
X74075747Y-58556665D01*
X74094089Y-58507488D01*
X74094088Y-58507488D01*
X74094091Y-58507483D01*
X74100500Y-58447873D01*
X74100500Y-58400000D01*
X82100000Y-58400000D01*
X82100000Y-58447844D01*
X82106401Y-58507372D01*
X82106403Y-58507380D01*
X82124786Y-58556667D01*
X82129770Y-58626359D01*
X82124786Y-58643333D01*
X82106403Y-58692619D01*
X82106401Y-58692627D01*
X82100000Y-58752155D01*
X82100000Y-58800000D01*
X82800000Y-58800000D01*
X82800000Y-58400000D01*
X82100000Y-58400000D01*
X74100500Y-58400000D01*
X74100499Y-57952128D01*
X74094091Y-57892517D01*
X74091218Y-57884813D01*
X74075747Y-57843334D01*
X74070762Y-57773643D01*
X74075747Y-57756665D01*
X74080021Y-57745205D01*
X74094091Y-57707483D01*
X74100500Y-57647873D01*
X74100500Y-57600000D01*
X82100000Y-57600000D01*
X82100000Y-57647844D01*
X82106401Y-57707372D01*
X82106403Y-57707380D01*
X82124786Y-57756667D01*
X82129770Y-57826359D01*
X82124786Y-57843333D01*
X82106403Y-57892619D01*
X82106401Y-57892627D01*
X82100000Y-57952155D01*
X82100000Y-58000000D01*
X82800000Y-58000000D01*
X82800000Y-57600000D01*
X82100000Y-57600000D01*
X74100500Y-57600000D01*
X74100499Y-57152128D01*
X74094091Y-57092517D01*
X74080597Y-57056337D01*
X74075747Y-57043334D01*
X74070762Y-56973643D01*
X74075747Y-56956665D01*
X74079161Y-56947511D01*
X74094091Y-56907483D01*
X74100500Y-56847873D01*
X74100500Y-56800000D01*
X82100000Y-56800000D01*
X82100000Y-56847844D01*
X82106401Y-56907372D01*
X82106403Y-56907380D01*
X82124786Y-56956667D01*
X82129770Y-57026359D01*
X82124786Y-57043333D01*
X82106403Y-57092619D01*
X82106401Y-57092627D01*
X82100000Y-57152155D01*
X82100000Y-57200000D01*
X82800000Y-57200000D01*
X82800000Y-56800000D01*
X82100000Y-56800000D01*
X74100500Y-56800000D01*
X74100499Y-56352128D01*
X74094091Y-56292517D01*
X74075747Y-56243334D01*
X74070762Y-56173643D01*
X74075747Y-56156665D01*
X74094089Y-56107488D01*
X74094088Y-56107488D01*
X74094091Y-56107483D01*
X74100500Y-56047873D01*
X74100500Y-56000000D01*
X82100000Y-56000000D01*
X82100000Y-56047844D01*
X82106401Y-56107372D01*
X82106403Y-56107380D01*
X82124786Y-56156667D01*
X82129770Y-56226359D01*
X82124786Y-56243333D01*
X82106403Y-56292619D01*
X82106401Y-56292627D01*
X82100000Y-56352155D01*
X82100000Y-56400000D01*
X82800000Y-56400000D01*
X82800000Y-56000000D01*
X82100000Y-56000000D01*
X74100500Y-56000000D01*
X74100499Y-55552128D01*
X74094091Y-55492517D01*
X74075870Y-55443664D01*
X74075747Y-55443334D01*
X74070762Y-55373643D01*
X74075747Y-55356665D01*
X74078859Y-55348321D01*
X74094091Y-55307483D01*
X74100500Y-55247873D01*
X74100500Y-55200000D01*
X82100000Y-55200000D01*
X82100000Y-55247844D01*
X82106401Y-55307372D01*
X82106403Y-55307380D01*
X82124786Y-55356667D01*
X82129770Y-55426359D01*
X82124786Y-55443333D01*
X82106403Y-55492619D01*
X82106401Y-55492627D01*
X82100000Y-55552155D01*
X82100000Y-55600000D01*
X82800000Y-55600000D01*
X82800000Y-55200000D01*
X82100000Y-55200000D01*
X74100500Y-55200000D01*
X74100499Y-54900365D01*
X74120183Y-54833328D01*
X74172987Y-54787573D01*
X74242146Y-54777629D01*
X74305701Y-54806654D01*
X74329491Y-54834393D01*
X74343484Y-54856662D01*
X74471038Y-54984216D01*
X74506584Y-55006551D01*
X74594529Y-55061811D01*
X74623778Y-55080189D01*
X74687568Y-55102510D01*
X74794045Y-55139768D01*
X74794050Y-55139769D01*
X74973296Y-55159965D01*
X74973300Y-55159965D01*
X74973304Y-55159965D01*
X75152549Y-55139769D01*
X75152552Y-55139768D01*
X75152555Y-55139768D01*
X75322822Y-55080189D01*
X75475562Y-54984216D01*
X75475567Y-54984210D01*
X75478397Y-54981955D01*
X75480575Y-54981065D01*
X75481458Y-54980511D01*
X75481555Y-54980665D01*
X75543083Y-54955545D01*
X75555712Y-54954900D01*
X78300013Y-54954900D01*
X78316197Y-54955960D01*
X78347500Y-54960082D01*
X78347501Y-54960082D01*
X78399754Y-54953202D01*
X78504262Y-54939444D01*
X78650341Y-54878936D01*
X78775782Y-54782682D01*
X78795009Y-54757623D01*
X78805690Y-54745443D01*
X79151133Y-54400000D01*
X82100000Y-54400000D01*
X82100000Y-54447844D01*
X82106401Y-54507372D01*
X82106403Y-54507380D01*
X82124786Y-54556667D01*
X82129770Y-54626359D01*
X82124786Y-54643333D01*
X82106403Y-54692619D01*
X82106401Y-54692627D01*
X82100000Y-54752155D01*
X82100000Y-54800000D01*
X82800000Y-54800000D01*
X82800000Y-54400000D01*
X82100000Y-54400000D01*
X79151133Y-54400000D01*
X79951133Y-53600000D01*
X82100000Y-53600000D01*
X82100000Y-53647844D01*
X82106401Y-53707372D01*
X82106403Y-53707380D01*
X82124786Y-53756667D01*
X82129770Y-53826359D01*
X82124786Y-53843333D01*
X82106403Y-53892619D01*
X82106401Y-53892627D01*
X82100000Y-53952155D01*
X82100000Y-54000000D01*
X82800000Y-54000000D01*
X82800000Y-53600000D01*
X82100000Y-53600000D01*
X79951133Y-53600000D01*
X80751133Y-52800000D01*
X82100000Y-52800000D01*
X82100000Y-52847844D01*
X82106401Y-52907372D01*
X82106403Y-52907380D01*
X82124786Y-52956667D01*
X82129770Y-53026359D01*
X82124786Y-53043333D01*
X82106403Y-53092619D01*
X82106401Y-53092627D01*
X82100000Y-53152155D01*
X82100000Y-53200000D01*
X82800000Y-53200000D01*
X82800000Y-52800000D01*
X82100000Y-52800000D01*
X80751133Y-52800000D01*
X80891043Y-52660090D01*
X80903223Y-52649409D01*
X80928282Y-52630182D01*
X81024536Y-52504741D01*
X81036214Y-52476548D01*
X81066422Y-52439060D01*
X81063681Y-52436319D01*
X81100000Y-52400000D01*
X81100000Y-52253184D01*
X81101060Y-52237006D01*
X81102830Y-52223559D01*
X81126503Y-52165430D01*
X81143796Y-52142331D01*
X81194091Y-52007483D01*
X81200500Y-51947873D01*
X81200500Y-51700000D01*
X81500000Y-51700000D01*
X81500000Y-52400000D01*
X81547828Y-52400000D01*
X81547844Y-52399999D01*
X81607377Y-52393597D01*
X81607378Y-52393597D01*
X81656665Y-52375214D01*
X81726356Y-52370228D01*
X81743335Y-52375214D01*
X81792621Y-52393597D01*
X81852155Y-52399999D01*
X81852172Y-52400000D01*
X82800000Y-52400000D01*
X82800000Y-51700000D01*
X81500000Y-51700000D01*
X81200500Y-51700000D01*
X81200499Y-51423998D01*
X81220183Y-51356961D01*
X81272987Y-51311206D01*
X81324499Y-51300000D01*
X82157000Y-51300000D01*
X82166976Y-51290023D01*
X82176685Y-51256961D01*
X82229489Y-51211206D01*
X82281000Y-51200000D01*
X83176000Y-51200000D01*
X83243039Y-51219685D01*
G37*
%TD.AperFunction*%
%TA.AperFunction,Conductor*%
G36*
X72218833Y-61935050D02*
G01*
X72274767Y-61976921D01*
X72299184Y-62042385D01*
X72299500Y-62051232D01*
X72299500Y-62447870D01*
X72299501Y-62447876D01*
X72305908Y-62507483D01*
X72359303Y-62650641D01*
X72357733Y-62651226D01*
X72370383Y-62709367D01*
X72358687Y-62749206D01*
X72359746Y-62749601D01*
X72306403Y-62892620D01*
X72306401Y-62892627D01*
X72300000Y-62952155D01*
X72300000Y-62989269D01*
X72280315Y-63056308D01*
X72227511Y-63102063D01*
X72158353Y-63112007D01*
X72094797Y-63082982D01*
X72088319Y-63076950D01*
X71963659Y-62952290D01*
X71963658Y-62952289D01*
X71814336Y-62860187D01*
X71647799Y-62805002D01*
X71647797Y-62805001D01*
X71545018Y-62794501D01*
X71545011Y-62794501D01*
X70195098Y-62794501D01*
X70128059Y-62774816D01*
X70107417Y-62758182D01*
X69806416Y-62457181D01*
X69772931Y-62395858D01*
X69777915Y-62326166D01*
X69819787Y-62270233D01*
X69885251Y-62245816D01*
X69894097Y-62245500D01*
X71545004Y-62245500D01*
X71545010Y-62245500D01*
X71647799Y-62235000D01*
X71814336Y-62179815D01*
X71963658Y-62087713D01*
X72087714Y-61963657D01*
X72087717Y-61963651D01*
X72087818Y-61963551D01*
X72149141Y-61930066D01*
X72218833Y-61935050D01*
G37*
%TD.AperFunction*%
%TA.AperFunction,Conductor*%
G36*
X69405039Y-56677785D02*
G01*
X69450794Y-56730589D01*
X69460738Y-56799747D01*
X69435264Y-56859014D01*
X69432682Y-56862278D01*
X69340643Y-57011496D01*
X69340641Y-57011501D01*
X69285494Y-57177923D01*
X69285493Y-57177930D01*
X69275000Y-57280634D01*
X69275000Y-57330621D01*
X70626000Y-57330621D01*
X70693039Y-57350306D01*
X70738794Y-57403110D01*
X70750000Y-57454621D01*
X70750000Y-57706621D01*
X70730315Y-57773660D01*
X70677511Y-57819415D01*
X70626000Y-57830621D01*
X69275001Y-57830621D01*
X69275001Y-57880607D01*
X69285494Y-57983318D01*
X69340641Y-58149740D01*
X69340643Y-58149745D01*
X69432684Y-58298966D01*
X69556655Y-58422937D01*
X69556659Y-58422940D01*
X69559656Y-58424789D01*
X69561279Y-58426593D01*
X69562323Y-58427419D01*
X69562181Y-58427597D01*
X69606381Y-58476737D01*
X69617602Y-58545700D01*
X69589759Y-58609782D01*
X69559661Y-58635862D01*
X69556349Y-58637904D01*
X69556343Y-58637909D01*
X69432288Y-58761964D01*
X69432285Y-58761968D01*
X69410723Y-58796925D01*
X69358774Y-58843649D01*
X69289812Y-58854869D01*
X69225730Y-58827024D01*
X69198454Y-58794947D01*
X69155735Y-58722713D01*
X69155729Y-58722705D01*
X69042292Y-58609268D01*
X69042283Y-58609261D01*
X68904189Y-58527593D01*
X68904186Y-58527591D01*
X68764999Y-58487153D01*
X68764998Y-58487154D01*
X68764998Y-60129421D01*
X68778642Y-60147701D01*
X68783529Y-60217399D01*
X68755109Y-60269370D01*
X68756768Y-60270682D01*
X68752292Y-60276342D01*
X68752290Y-60276344D01*
X68752290Y-60276345D01*
X68668299Y-60412518D01*
X68662339Y-60422180D01*
X68610391Y-60468904D01*
X68541428Y-60480127D01*
X68477346Y-60452283D01*
X68438490Y-60394215D01*
X68432800Y-60357083D01*
X68432800Y-59684787D01*
X68433861Y-59668601D01*
X68437982Y-59637299D01*
X68437982Y-59637298D01*
X68419619Y-59497818D01*
X68417344Y-59480538D01*
X68356836Y-59334459D01*
X68350143Y-59325737D01*
X68314694Y-59279537D01*
X68314690Y-59279534D01*
X68291120Y-59248816D01*
X68265927Y-59183646D01*
X68265497Y-59173331D01*
X68265497Y-59050831D01*
X68265496Y-59050806D01*
X68265380Y-59049332D01*
X68264998Y-59039607D01*
X68264998Y-58487154D01*
X68264996Y-58487153D01*
X68125809Y-58527591D01*
X68125808Y-58527592D01*
X68068609Y-58561419D01*
X68000884Y-58578600D01*
X67942369Y-58561419D01*
X67915970Y-58545807D01*
X67884391Y-58527131D01*
X67884390Y-58527130D01*
X67884389Y-58527130D01*
X67884387Y-58527129D01*
X67841826Y-58514764D01*
X67782940Y-58477157D01*
X67753735Y-58413684D01*
X67763482Y-58344497D01*
X67804757Y-58296588D01*
X67804016Y-58295659D01*
X67808943Y-58291729D01*
X67809086Y-58291564D01*
X67809408Y-58291358D01*
X67809456Y-58291319D01*
X67809462Y-58291316D01*
X67937016Y-58163762D01*
X68032989Y-58011022D01*
X68092568Y-57840755D01*
X68102361Y-57753829D01*
X68129426Y-57689418D01*
X68137890Y-57680043D01*
X69123516Y-56694419D01*
X69184839Y-56660934D01*
X69211197Y-56658100D01*
X69338000Y-56658100D01*
X69405039Y-56677785D01*
G37*
%TD.AperFunction*%
%TA.AperFunction,Conductor*%
G36*
X70137316Y-50520185D02*
G01*
X70183071Y-50572989D01*
X70193015Y-50642147D01*
X70175271Y-50690472D01*
X70094210Y-50819478D01*
X70034630Y-50989750D01*
X70024837Y-51076668D01*
X69997770Y-51141082D01*
X69989298Y-51150465D01*
X69938176Y-51201587D01*
X69876853Y-51235072D01*
X69850497Y-51237906D01*
X69790831Y-51237906D01*
X69790807Y-51237907D01*
X69754794Y-51240741D01*
X69600611Y-51285535D01*
X69600606Y-51285537D01*
X69462404Y-51367269D01*
X69462396Y-51367275D01*
X69362580Y-51467092D01*
X69301257Y-51500577D01*
X69240304Y-51498487D01*
X69230001Y-51495493D01*
X69230000Y-51495494D01*
X69230000Y-51729170D01*
X69225078Y-51763761D01*
X69222335Y-51773201D01*
X69222334Y-51773208D01*
X69219500Y-51809217D01*
X69219500Y-52307575D01*
X69219501Y-52307597D01*
X69222334Y-52343607D01*
X69222335Y-52343610D01*
X69225076Y-52353047D01*
X69230000Y-52387639D01*
X69230000Y-53104503D01*
X69361405Y-53066328D01*
X69431275Y-53066527D01*
X69489944Y-53104469D01*
X69518788Y-53168108D01*
X69520000Y-53185402D01*
X69520000Y-53240739D01*
X69520001Y-53240762D01*
X69522889Y-53277462D01*
X69568529Y-53434557D01*
X69568533Y-53434566D01*
X69629074Y-53536937D01*
X69646257Y-53604661D01*
X69640048Y-53639060D01*
X69585495Y-53803692D01*
X69585493Y-53803703D01*
X69575000Y-53906407D01*
X69575000Y-53956394D01*
X72024999Y-53956394D01*
X72024999Y-53906422D01*
X72024998Y-53906407D01*
X72014505Y-53803696D01*
X71960159Y-53639690D01*
X71957757Y-53569862D01*
X71971130Y-53537570D01*
X72031931Y-53434762D01*
X72056424Y-53350458D01*
X72094030Y-53291573D01*
X72157502Y-53262366D01*
X72226689Y-53272112D01*
X72279623Y-53317716D01*
X72299499Y-53384699D01*
X72299500Y-53385053D01*
X72299500Y-53647869D01*
X72299501Y-53647876D01*
X72305909Y-53707484D01*
X72324519Y-53757382D01*
X72329503Y-53827074D01*
X72324520Y-53844046D01*
X72306402Y-53892623D01*
X72306401Y-53892627D01*
X72300000Y-53952155D01*
X72300000Y-54000000D01*
X72457893Y-54000000D01*
X72524932Y-54019685D01*
X72532204Y-54024733D01*
X72557668Y-54043795D01*
X72557671Y-54043797D01*
X72664972Y-54083818D01*
X72720906Y-54125689D01*
X72745323Y-54191154D01*
X72730471Y-54259427D01*
X72681066Y-54308832D01*
X72664972Y-54316182D01*
X72557671Y-54356202D01*
X72557668Y-54356204D01*
X72532204Y-54375267D01*
X72466739Y-54399684D01*
X72457893Y-54400000D01*
X72300000Y-54400000D01*
X72300000Y-54447844D01*
X72306401Y-54507372D01*
X72306403Y-54507383D01*
X72324519Y-54555953D01*
X72329503Y-54625644D01*
X72324520Y-54642616D01*
X72305910Y-54692513D01*
X72305909Y-54692517D01*
X72299500Y-54752127D01*
X72299500Y-54752134D01*
X72299500Y-54752135D01*
X72299500Y-55247870D01*
X72299501Y-55247876D01*
X72305908Y-55307482D01*
X72310420Y-55319579D01*
X72324252Y-55356665D01*
X72324253Y-55356666D01*
X72329237Y-55426358D01*
X72324253Y-55443331D01*
X72305910Y-55492511D01*
X72305910Y-55492514D01*
X72305909Y-55492517D01*
X72299500Y-55552127D01*
X72299500Y-55552134D01*
X72299500Y-55552135D01*
X72299500Y-56047870D01*
X72299501Y-56047876D01*
X72305908Y-56107482D01*
X72319004Y-56142593D01*
X72324252Y-56156665D01*
X72324253Y-56156666D01*
X72329237Y-56226358D01*
X72324253Y-56243331D01*
X72305909Y-56292514D01*
X72305908Y-56292516D01*
X72299913Y-56348288D01*
X72299501Y-56352123D01*
X72299500Y-56352135D01*
X72299500Y-56663744D01*
X72279815Y-56730783D01*
X72227011Y-56776538D01*
X72161615Y-56786964D01*
X72083448Y-56778156D01*
X72019035Y-56751089D01*
X71979480Y-56693494D01*
X71977343Y-56623657D01*
X71979612Y-56615981D01*
X72014999Y-56509191D01*
X72025500Y-56406403D01*
X72025499Y-55806386D01*
X72024069Y-55792391D01*
X72014999Y-55703597D01*
X72014998Y-55703594D01*
X72005451Y-55674784D01*
X71959814Y-55537060D01*
X71867712Y-55387738D01*
X71743656Y-55263682D01*
X71740342Y-55261637D01*
X71738546Y-55259642D01*
X71737989Y-55259201D01*
X71738064Y-55259105D01*
X71693618Y-55209691D01*
X71682397Y-55140728D01*
X71710240Y-55076646D01*
X71740348Y-55050559D01*
X71743342Y-55048712D01*
X71867315Y-54924739D01*
X71959356Y-54775518D01*
X71959358Y-54775513D01*
X72014505Y-54609091D01*
X72014506Y-54609084D01*
X72024999Y-54506380D01*
X72025000Y-54506367D01*
X72025000Y-54456394D01*
X69575001Y-54456394D01*
X69575001Y-54506380D01*
X69585494Y-54609091D01*
X69640641Y-54775513D01*
X69640643Y-54775518D01*
X69732684Y-54924739D01*
X69856655Y-55048710D01*
X69856659Y-55048713D01*
X69859656Y-55050562D01*
X69861279Y-55052366D01*
X69862323Y-55053192D01*
X69862181Y-55053370D01*
X69906381Y-55102510D01*
X69917602Y-55171473D01*
X69889759Y-55235555D01*
X69859661Y-55261635D01*
X69856349Y-55263677D01*
X69856343Y-55263682D01*
X69732287Y-55387738D01*
X69725836Y-55398198D01*
X69673887Y-55444922D01*
X69620298Y-55457100D01*
X69211197Y-55457100D01*
X69144158Y-55437415D01*
X69123516Y-55420781D01*
X68044419Y-54341684D01*
X68010934Y-54280361D01*
X68008100Y-54254003D01*
X68008100Y-53234500D01*
X68027785Y-53167461D01*
X68080589Y-53121706D01*
X68132100Y-53110500D01*
X68224682Y-53110500D01*
X68224690Y-53110500D01*
X68260993Y-53107643D01*
X68260995Y-53107642D01*
X68260997Y-53107642D01*
X68313056Y-53092517D01*
X68416395Y-53062494D01*
X68437369Y-53050089D01*
X68505088Y-53032906D01*
X68563613Y-53050090D01*
X68583803Y-53062031D01*
X68730000Y-53104504D01*
X68730000Y-52798352D01*
X68747267Y-52735233D01*
X68752494Y-52726395D01*
X68763732Y-52687716D01*
X68797642Y-52570997D01*
X68797643Y-52570991D01*
X68800500Y-52534690D01*
X68800500Y-52065310D01*
X68797643Y-52029007D01*
X68793587Y-52015048D01*
X68752495Y-51873608D01*
X68752492Y-51873600D01*
X68747266Y-51864763D01*
X68730000Y-51801645D01*
X68730000Y-51495494D01*
X68729998Y-51495493D01*
X68583809Y-51537965D01*
X68583806Y-51537967D01*
X68563608Y-51549912D01*
X68495884Y-51567092D01*
X68437370Y-51549910D01*
X68416397Y-51537507D01*
X68416390Y-51537504D01*
X68260997Y-51492357D01*
X68260991Y-51492356D01*
X68224697Y-51489500D01*
X68224690Y-51489500D01*
X67815310Y-51489500D01*
X67815302Y-51489500D01*
X67779008Y-51492356D01*
X67779002Y-51492357D01*
X67623609Y-51537504D01*
X67623608Y-51537504D01*
X67562629Y-51573567D01*
X67494905Y-51590749D01*
X67436388Y-51573566D01*
X67376193Y-51537967D01*
X67376190Y-51537965D01*
X67230001Y-51495493D01*
X67230000Y-51495494D01*
X67230000Y-52187900D01*
X67210315Y-52254939D01*
X67157511Y-52300694D01*
X67106000Y-52311900D01*
X66932497Y-52311900D01*
X66865458Y-52292215D01*
X66844816Y-52275581D01*
X66836819Y-52267584D01*
X66803334Y-52206261D01*
X66800500Y-52179903D01*
X66800500Y-52065317D01*
X66800499Y-52065302D01*
X66799359Y-52050819D01*
X66797643Y-52029007D01*
X66793587Y-52015048D01*
X66752495Y-51873608D01*
X66752492Y-51873600D01*
X66747266Y-51864763D01*
X66730000Y-51801645D01*
X66730000Y-51495494D01*
X66729998Y-51495493D01*
X66583809Y-51537965D01*
X66583806Y-51537967D01*
X66563608Y-51549912D01*
X66495884Y-51567092D01*
X66437370Y-51549910D01*
X66416397Y-51537507D01*
X66416390Y-51537504D01*
X66260997Y-51492357D01*
X66260991Y-51492356D01*
X66224697Y-51489500D01*
X66224690Y-51489500D01*
X66110097Y-51489500D01*
X66043058Y-51469815D01*
X66022416Y-51453181D01*
X65848299Y-51279064D01*
X65837604Y-51266869D01*
X65818383Y-51241819D01*
X65813285Y-51237907D01*
X65692941Y-51145564D01*
X65546862Y-51085056D01*
X65546860Y-51085055D01*
X65429461Y-51069600D01*
X65390100Y-51064418D01*
X65358797Y-51068539D01*
X65342613Y-51069600D01*
X64667387Y-51069600D01*
X64651202Y-51068539D01*
X64619900Y-51064418D01*
X64580539Y-51069600D01*
X64463139Y-51085055D01*
X64463137Y-51085056D01*
X64317057Y-51145564D01*
X64191618Y-51241816D01*
X64172389Y-51266875D01*
X64161698Y-51279065D01*
X63997582Y-51443181D01*
X63936259Y-51476666D01*
X63909902Y-51479500D01*
X63790831Y-51479500D01*
X63790807Y-51479501D01*
X63754794Y-51482335D01*
X63600611Y-51527129D01*
X63600606Y-51527131D01*
X63462404Y-51608863D01*
X63462396Y-51608869D01*
X63348869Y-51722396D01*
X63348863Y-51722404D01*
X63267131Y-51860606D01*
X63267129Y-51860611D01*
X63222335Y-52014791D01*
X63222334Y-52014797D01*
X63219500Y-52050811D01*
X63219500Y-52549169D01*
X63219502Y-52549196D01*
X63220944Y-52567527D01*
X63206578Y-52635903D01*
X63172813Y-52675627D01*
X63064917Y-52758418D01*
X63045689Y-52783475D01*
X63034998Y-52795665D01*
X62358965Y-53471698D01*
X62346775Y-53482389D01*
X62321714Y-53501620D01*
X62321327Y-53502008D01*
X62320920Y-53502230D01*
X62315274Y-53506563D01*
X62314597Y-53505681D01*
X62260001Y-53535488D01*
X62233654Y-53538320D01*
X62150597Y-53538320D01*
X62040531Y-53552809D01*
X62032678Y-53554914D01*
X62031802Y-53551644D01*
X61977853Y-53557387D01*
X61967477Y-53554338D01*
X61967323Y-53554915D01*
X61959470Y-53552810D01*
X61849401Y-53538320D01*
X61650596Y-53538320D01*
X61540531Y-53552809D01*
X61532678Y-53554914D01*
X61531802Y-53551644D01*
X61477853Y-53557387D01*
X61467477Y-53554338D01*
X61467323Y-53554915D01*
X61459470Y-53552810D01*
X61349401Y-53538320D01*
X61150596Y-53538320D01*
X61040536Y-53552808D01*
X61040527Y-53552811D01*
X60903574Y-53609539D01*
X60903571Y-53609540D01*
X60903571Y-53609541D01*
X60785964Y-53699784D01*
X60704489Y-53805965D01*
X60695719Y-53817394D01*
X60638991Y-53954347D01*
X60638990Y-53954349D01*
X60624501Y-54064409D01*
X60624500Y-54064425D01*
X60624500Y-54389320D01*
X60604815Y-54456359D01*
X60552011Y-54502114D01*
X60500500Y-54513320D01*
X60175596Y-54513320D01*
X60065536Y-54527808D01*
X60065527Y-54527811D01*
X59928574Y-54584539D01*
X59928571Y-54584540D01*
X59928571Y-54584541D01*
X59810964Y-54674784D01*
X59732049Y-54777629D01*
X59720719Y-54792394D01*
X59663991Y-54929347D01*
X59663990Y-54929349D01*
X59649500Y-55039418D01*
X59649500Y-55206785D01*
X59629815Y-55273824D01*
X59577011Y-55319579D01*
X59539383Y-55330005D01*
X59425550Y-55342830D01*
X59425545Y-55342831D01*
X59255276Y-55402411D01*
X59102537Y-55498384D01*
X59102536Y-55498385D01*
X58990406Y-55610514D01*
X58929083Y-55643998D01*
X58886543Y-55645771D01*
X58875500Y-55644318D01*
X58875499Y-55644318D01*
X58875498Y-55644318D01*
X58854245Y-55647116D01*
X58844197Y-55648439D01*
X58828013Y-55649500D01*
X58670808Y-55649500D01*
X58603769Y-55629815D01*
X58583126Y-55613180D01*
X58551870Y-55581923D01*
X58551862Y-55581917D01*
X58410396Y-55498255D01*
X58410393Y-55498254D01*
X58252573Y-55452402D01*
X58252567Y-55452401D01*
X58215701Y-55449500D01*
X58215694Y-55449500D01*
X57298698Y-55449500D01*
X57231659Y-55429815D01*
X57193704Y-55391472D01*
X57184379Y-55376632D01*
X57127016Y-55285338D01*
X56999462Y-55157784D01*
X56972318Y-55140728D01*
X56846723Y-55061811D01*
X56676454Y-55002231D01*
X56676449Y-55002230D01*
X56497204Y-54982035D01*
X56497196Y-54982035D01*
X56317950Y-55002230D01*
X56317945Y-55002231D01*
X56147676Y-55061811D01*
X55994937Y-55157784D01*
X55867384Y-55285337D01*
X55839938Y-55329018D01*
X55811899Y-55373643D01*
X55800696Y-55391472D01*
X55748361Y-55437763D01*
X55695702Y-55449500D01*
X54784298Y-55449500D01*
X54747432Y-55452401D01*
X54747426Y-55452402D01*
X54589606Y-55498254D01*
X54589603Y-55498255D01*
X54448137Y-55581917D01*
X54448129Y-55581923D01*
X54331923Y-55698129D01*
X54331917Y-55698137D01*
X54248255Y-55839603D01*
X54248254Y-55839606D01*
X54202402Y-55997426D01*
X54202401Y-55997432D01*
X54199500Y-56034298D01*
X54199500Y-56465701D01*
X54202401Y-56502567D01*
X54202402Y-56502573D01*
X54248254Y-56660393D01*
X54248256Y-56660399D01*
X54249426Y-56662377D01*
X54249869Y-56664126D01*
X54251353Y-56667554D01*
X54250799Y-56667793D01*
X54266603Y-56730102D01*
X54251249Y-56782395D01*
X54251817Y-56782641D01*
X54249827Y-56787239D01*
X54249428Y-56788599D01*
X54248722Y-56789791D01*
X54248716Y-56789806D01*
X54202900Y-56947505D01*
X54202899Y-56947511D01*
X54202704Y-56949998D01*
X54202705Y-56950000D01*
X54468185Y-56950000D01*
X54531306Y-56967268D01*
X54589602Y-57001744D01*
X54631224Y-57013836D01*
X54747426Y-57047597D01*
X54747429Y-57047597D01*
X54747431Y-57047598D01*
X54784306Y-57050500D01*
X54784314Y-57050500D01*
X55488500Y-57050500D01*
X55555539Y-57070185D01*
X55601294Y-57122989D01*
X55612500Y-57174500D01*
X55612500Y-57225500D01*
X55592815Y-57292539D01*
X55540011Y-57338294D01*
X55488500Y-57349500D01*
X54784298Y-57349500D01*
X54747432Y-57352401D01*
X54747426Y-57352402D01*
X54589606Y-57398254D01*
X54589603Y-57398255D01*
X54531306Y-57432732D01*
X54468185Y-57450000D01*
X54202705Y-57450000D01*
X54187636Y-57466300D01*
X54185163Y-57478073D01*
X54136108Y-57527827D01*
X54067942Y-57543160D01*
X54002307Y-57519207D01*
X53988233Y-57507098D01*
X53610099Y-57128964D01*
X53599404Y-57116769D01*
X53580183Y-57091719D01*
X53570883Y-57084583D01*
X53454741Y-56995464D01*
X53308662Y-56934956D01*
X53300765Y-56933916D01*
X53278769Y-56931020D01*
X53214874Y-56902751D01*
X53182577Y-56860487D01*
X53174038Y-56842176D01*
X53174034Y-56842169D01*
X53038494Y-56648597D01*
X52871402Y-56481506D01*
X52871396Y-56481501D01*
X52685842Y-56351575D01*
X52642217Y-56296998D01*
X52635023Y-56227500D01*
X52666546Y-56165145D01*
X52685842Y-56148425D01*
X52744313Y-56107483D01*
X52871401Y-56018495D01*
X53038495Y-55851401D01*
X53174035Y-55657830D01*
X53273903Y-55443663D01*
X53335063Y-55215408D01*
X53355659Y-54980000D01*
X53335063Y-54744592D01*
X53284021Y-54554098D01*
X53273905Y-54516344D01*
X53273904Y-54516343D01*
X53273903Y-54516337D01*
X53174035Y-54302171D01*
X53172166Y-54299501D01*
X53038494Y-54108597D01*
X52871402Y-53941506D01*
X52871401Y-53941505D01*
X52685405Y-53811269D01*
X52641781Y-53756692D01*
X52634588Y-53687193D01*
X52666110Y-53624839D01*
X52685405Y-53608119D01*
X52871082Y-53478105D01*
X53038105Y-53311082D01*
X53173600Y-53117578D01*
X53273429Y-52903492D01*
X53273432Y-52903486D01*
X53330636Y-52690000D01*
X52433686Y-52690000D01*
X52459493Y-52649844D01*
X52500000Y-52511889D01*
X52500000Y-52368111D01*
X52459493Y-52230156D01*
X52433686Y-52190000D01*
X53330636Y-52190000D01*
X53330635Y-52189999D01*
X53273432Y-51976513D01*
X53273429Y-51976507D01*
X53173600Y-51762422D01*
X53173599Y-51762420D01*
X53038113Y-51568926D01*
X53038108Y-51568920D01*
X52871082Y-51401894D01*
X52677578Y-51266399D01*
X52463492Y-51166570D01*
X52463486Y-51166567D01*
X52250000Y-51109364D01*
X52250000Y-52004498D01*
X52142315Y-51955320D01*
X52035763Y-51940000D01*
X51964237Y-51940000D01*
X51857685Y-51955320D01*
X51750000Y-52004498D01*
X51750000Y-51109364D01*
X51749999Y-51109364D01*
X51536513Y-51166567D01*
X51536507Y-51166570D01*
X51322422Y-51266399D01*
X51322420Y-51266400D01*
X51128926Y-51401886D01*
X51128920Y-51401891D01*
X50961891Y-51568920D01*
X50961886Y-51568926D01*
X50826400Y-51762420D01*
X50826399Y-51762422D01*
X50736882Y-51954393D01*
X50690710Y-52006832D01*
X50623516Y-52025984D01*
X50556635Y-52005768D01*
X50511300Y-51952603D01*
X50500500Y-51901988D01*
X50500500Y-50624500D01*
X50520185Y-50557461D01*
X50572989Y-50511706D01*
X50624500Y-50500500D01*
X70070277Y-50500500D01*
X70137316Y-50520185D01*
G37*
%TD.AperFunction*%
%TA.AperFunction,Conductor*%
G36*
X63032514Y-55348321D02*
G01*
X63032674Y-55347725D01*
X63040524Y-55349828D01*
X63040526Y-55349828D01*
X63040528Y-55349829D01*
X63150599Y-55364320D01*
X63349400Y-55364319D01*
X63390830Y-55358865D01*
X63459866Y-55369631D01*
X63512121Y-55416011D01*
X63531006Y-55483280D01*
X63529954Y-55497989D01*
X63524500Y-55539417D01*
X63524500Y-55738223D01*
X63538989Y-55848288D01*
X63541094Y-55856142D01*
X63537814Y-55857020D01*
X63543581Y-55910893D01*
X63540517Y-55921342D01*
X63541095Y-55921497D01*
X63538990Y-55929349D01*
X63524500Y-56039418D01*
X63524500Y-56238223D01*
X63538989Y-56348288D01*
X63541094Y-56356142D01*
X63537814Y-56357020D01*
X63543581Y-56410893D01*
X63540517Y-56421342D01*
X63541095Y-56421497D01*
X63538990Y-56429349D01*
X63524500Y-56539418D01*
X63524500Y-56738223D01*
X63538989Y-56848288D01*
X63541094Y-56856142D01*
X63537814Y-56857020D01*
X63543581Y-56910893D01*
X63540517Y-56921342D01*
X63541095Y-56921497D01*
X63538990Y-56929349D01*
X63524500Y-57039418D01*
X63524500Y-57238216D01*
X63529955Y-57279653D01*
X63519187Y-57348688D01*
X63472806Y-57400943D01*
X63405536Y-57419826D01*
X63390830Y-57418774D01*
X63349401Y-57413320D01*
X63150596Y-57413320D01*
X63040531Y-57427809D01*
X63032678Y-57429914D01*
X63031802Y-57426644D01*
X62977853Y-57432387D01*
X62967477Y-57429338D01*
X62967323Y-57429915D01*
X62959470Y-57427810D01*
X62849401Y-57413320D01*
X62650596Y-57413320D01*
X62540531Y-57427809D01*
X62532678Y-57429914D01*
X62531802Y-57426644D01*
X62477853Y-57432387D01*
X62467477Y-57429338D01*
X62467323Y-57429915D01*
X62459470Y-57427810D01*
X62349401Y-57413320D01*
X62150596Y-57413320D01*
X62040531Y-57427809D01*
X62032678Y-57429914D01*
X62031802Y-57426644D01*
X61977853Y-57432387D01*
X61967477Y-57429338D01*
X61967323Y-57429915D01*
X61959470Y-57427810D01*
X61849401Y-57413320D01*
X61650603Y-57413320D01*
X61609166Y-57418775D01*
X61540131Y-57408007D01*
X61487876Y-57361625D01*
X61468993Y-57294356D01*
X61470045Y-57279653D01*
X61475500Y-57238221D01*
X61475499Y-57039420D01*
X61461009Y-56929348D01*
X61461008Y-56929345D01*
X61458905Y-56921494D01*
X61462207Y-56920609D01*
X61456392Y-56866895D01*
X61459501Y-56856305D01*
X61458905Y-56856146D01*
X61461008Y-56848295D01*
X61461008Y-56848294D01*
X61461009Y-56848292D01*
X61475500Y-56738221D01*
X61475499Y-56539420D01*
X61461009Y-56429348D01*
X61461008Y-56429345D01*
X61458905Y-56421494D01*
X61462207Y-56420609D01*
X61456392Y-56366895D01*
X61459501Y-56356305D01*
X61458905Y-56356146D01*
X61461008Y-56348295D01*
X61461008Y-56348294D01*
X61461009Y-56348292D01*
X61475500Y-56238221D01*
X61475499Y-56039420D01*
X61475499Y-56039418D01*
X61475499Y-56039416D01*
X61461011Y-55929356D01*
X61458906Y-55921502D01*
X61462007Y-55920670D01*
X61456128Y-55866202D01*
X61459147Y-55856209D01*
X61458418Y-55856014D01*
X61460521Y-55848162D01*
X61471626Y-55763820D01*
X61443506Y-55763820D01*
X61376467Y-55744135D01*
X61345115Y-55715286D01*
X61344348Y-55714286D01*
X61319167Y-55649112D01*
X61333219Y-55580670D01*
X61344348Y-55563354D01*
X61345115Y-55562354D01*
X61401534Y-55521139D01*
X61443506Y-55513820D01*
X61471626Y-55513820D01*
X61469533Y-55497923D01*
X61480298Y-55428888D01*
X61526678Y-55376632D01*
X61593947Y-55357746D01*
X61608651Y-55358797D01*
X61650599Y-55364320D01*
X61849400Y-55364319D01*
X61849401Y-55364319D01*
X61866087Y-55362122D01*
X61959472Y-55349829D01*
X61959475Y-55349827D01*
X61967326Y-55347725D01*
X61968210Y-55351027D01*
X62021925Y-55345212D01*
X62032514Y-55348321D01*
X62032674Y-55347725D01*
X62040524Y-55349828D01*
X62040526Y-55349828D01*
X62040528Y-55349829D01*
X62150599Y-55364320D01*
X62349400Y-55364319D01*
X62349401Y-55364319D01*
X62366087Y-55362122D01*
X62459472Y-55349829D01*
X62459475Y-55349827D01*
X62467326Y-55347725D01*
X62468210Y-55351027D01*
X62521925Y-55345212D01*
X62532514Y-55348321D01*
X62532674Y-55347725D01*
X62540524Y-55349828D01*
X62540526Y-55349828D01*
X62540528Y-55349829D01*
X62650599Y-55364320D01*
X62849400Y-55364319D01*
X62849401Y-55364319D01*
X62866087Y-55362122D01*
X62959472Y-55349829D01*
X62959475Y-55349827D01*
X62967326Y-55347725D01*
X62968210Y-55351027D01*
X63021925Y-55345212D01*
X63032514Y-55348321D01*
G37*
%TD.AperFunction*%
%TA.AperFunction,Conductor*%
G36*
X72460979Y-50520185D02*
G01*
X72506734Y-50572989D01*
X72516678Y-50642147D01*
X72487653Y-50705703D01*
X72468252Y-50723766D01*
X72442809Y-50742812D01*
X72356649Y-50857906D01*
X72356645Y-50857913D01*
X72306403Y-50992620D01*
X72306401Y-50992627D01*
X72300000Y-51052155D01*
X72300000Y-51200000D01*
X73919000Y-51200000D01*
X73986039Y-51219685D01*
X74031794Y-51272489D01*
X74036327Y-51293327D01*
X74043000Y-51300000D01*
X74075500Y-51300000D01*
X74142539Y-51319685D01*
X74188294Y-51372489D01*
X74199500Y-51423999D01*
X74199501Y-51575999D01*
X74179817Y-51643039D01*
X74127013Y-51688794D01*
X74075501Y-51700000D01*
X72300000Y-51700000D01*
X72300000Y-51847844D01*
X72306401Y-51907372D01*
X72306403Y-51907379D01*
X72359746Y-52050399D01*
X72357930Y-52051076D01*
X72370383Y-52108316D01*
X72358428Y-52149033D01*
X72359303Y-52149359D01*
X72306022Y-52292215D01*
X72305909Y-52292517D01*
X72299500Y-52352127D01*
X72299500Y-52352134D01*
X72299500Y-52352135D01*
X72299500Y-52620677D01*
X72279815Y-52687716D01*
X72227011Y-52733471D01*
X72157853Y-52743415D01*
X72094297Y-52714390D01*
X72056523Y-52655612D01*
X72056424Y-52655272D01*
X72043878Y-52612088D01*
X72031931Y-52570968D01*
X71948590Y-52430045D01*
X71922503Y-52403958D01*
X71889019Y-52342638D01*
X71887246Y-52300096D01*
X71890682Y-52274000D01*
X71870044Y-52117238D01*
X71809536Y-51971159D01*
X71809534Y-51971156D01*
X71806121Y-51966707D01*
X71780929Y-51901537D01*
X71780499Y-51891224D01*
X71780499Y-51809237D01*
X71780498Y-51809212D01*
X71780217Y-51805642D01*
X71777665Y-51773202D01*
X71732869Y-51619013D01*
X71651135Y-51480808D01*
X71651133Y-51480806D01*
X71651130Y-51480802D01*
X71637700Y-51467372D01*
X71604215Y-51406049D01*
X71604493Y-51352084D01*
X71605365Y-51348261D01*
X71605368Y-51348255D01*
X71605368Y-51348248D01*
X71605370Y-51348243D01*
X71625565Y-51169003D01*
X71625565Y-51168996D01*
X71605369Y-50989750D01*
X71605368Y-50989745D01*
X71559238Y-50857913D01*
X71545789Y-50819478D01*
X71464728Y-50690471D01*
X71445729Y-50623236D01*
X71466097Y-50556400D01*
X71519364Y-50511186D01*
X71569723Y-50500500D01*
X72393940Y-50500500D01*
X72460979Y-50520185D01*
G37*
%TD.AperFunction*%
%TD*%
M02*
