%TF.GenerationSoftware,KiCad,Pcbnew,7.0.11+dfsg-1build4*%
%TF.CreationDate,2026-08-27T19:45:56+00:00*%
%TF.ProjectId,nlink-lite,6e6c696e-6b2d-46c6-9974-652e6b696361,rev?*%
%TF.SameCoordinates,Original*%
%TF.FileFunction,Legend,Bot*%
%TF.FilePolarity,Positive*%
%FSLAX46Y46*%
G04 Gerber Fmt 4.6, Leading zero omitted, Abs format (unit mm)*
G04 Created by KiCad (PCBNEW 7.0.11+dfsg-1build4) date 2026-08-27 19:45:56*
%MOMM*%
%LPD*%
G01*
G04 APERTURE LIST*
%ADD10C,0.099000*%
%ADD11C,0.287500*%
%ADD12C,0.175000*%
%ADD13C,0.120000*%
G04 APERTURE END LIST*
D10*
X65796429Y-57382625D02*
X65796429Y-57749292D01*
X65927381Y-57173102D02*
X66058334Y-57565959D01*
X66058334Y-57565959D02*
X65717857Y-57565959D01*
X65508333Y-57696911D02*
X65482143Y-57723102D01*
X65482143Y-57723102D02*
X65508333Y-57749292D01*
X65508333Y-57749292D02*
X65534524Y-57723102D01*
X65534524Y-57723102D02*
X65508333Y-57696911D01*
X65508333Y-57696911D02*
X65508333Y-57749292D01*
X65508333Y-57408816D02*
X65482143Y-57435006D01*
X65482143Y-57435006D02*
X65508333Y-57461197D01*
X65508333Y-57461197D02*
X65534524Y-57435006D01*
X65534524Y-57435006D02*
X65508333Y-57408816D01*
X65508333Y-57408816D02*
X65508333Y-57461197D01*
X65246428Y-57749292D02*
X65246428Y-57199292D01*
X64879761Y-57199292D02*
X64774999Y-57199292D01*
X64774999Y-57199292D02*
X64722618Y-57225482D01*
X64722618Y-57225482D02*
X64670237Y-57277863D01*
X64670237Y-57277863D02*
X64644047Y-57382625D01*
X64644047Y-57382625D02*
X64644047Y-57565959D01*
X64644047Y-57565959D02*
X64670237Y-57670721D01*
X64670237Y-57670721D02*
X64722618Y-57723102D01*
X64722618Y-57723102D02*
X64774999Y-57749292D01*
X64774999Y-57749292D02*
X64879761Y-57749292D01*
X64879761Y-57749292D02*
X64932142Y-57723102D01*
X64932142Y-57723102D02*
X64984523Y-57670721D01*
X64984523Y-57670721D02*
X65010714Y-57565959D01*
X65010714Y-57565959D02*
X65010714Y-57382625D01*
X65010714Y-57382625D02*
X64984523Y-57277863D01*
X64984523Y-57277863D02*
X64932142Y-57225482D01*
X64932142Y-57225482D02*
X64879761Y-57199292D01*
X64303571Y-57199292D02*
X64251190Y-57199292D01*
X64251190Y-57199292D02*
X64198809Y-57225482D01*
X64198809Y-57225482D02*
X64172619Y-57251673D01*
X64172619Y-57251673D02*
X64146428Y-57304054D01*
X64146428Y-57304054D02*
X64120238Y-57408816D01*
X64120238Y-57408816D02*
X64120238Y-57539768D01*
X64120238Y-57539768D02*
X64146428Y-57644530D01*
X64146428Y-57644530D02*
X64172619Y-57696911D01*
X64172619Y-57696911D02*
X64198809Y-57723102D01*
X64198809Y-57723102D02*
X64251190Y-57749292D01*
X64251190Y-57749292D02*
X64303571Y-57749292D01*
X64303571Y-57749292D02*
X64355952Y-57723102D01*
X64355952Y-57723102D02*
X64382143Y-57696911D01*
X64382143Y-57696911D02*
X64408333Y-57644530D01*
X64408333Y-57644530D02*
X64434524Y-57539768D01*
X64434524Y-57539768D02*
X64434524Y-57408816D01*
X64434524Y-57408816D02*
X64408333Y-57304054D01*
X64408333Y-57304054D02*
X64382143Y-57251673D01*
X64382143Y-57251673D02*
X64355952Y-57225482D01*
X64355952Y-57225482D02*
X64303571Y-57199292D01*
X63517856Y-57199292D02*
X63177380Y-57199292D01*
X63177380Y-57199292D02*
X63360713Y-57408816D01*
X63360713Y-57408816D02*
X63282142Y-57408816D01*
X63282142Y-57408816D02*
X63229761Y-57435006D01*
X63229761Y-57435006D02*
X63203570Y-57461197D01*
X63203570Y-57461197D02*
X63177380Y-57513578D01*
X63177380Y-57513578D02*
X63177380Y-57644530D01*
X63177380Y-57644530D02*
X63203570Y-57696911D01*
X63203570Y-57696911D02*
X63229761Y-57723102D01*
X63229761Y-57723102D02*
X63282142Y-57749292D01*
X63282142Y-57749292D02*
X63439285Y-57749292D01*
X63439285Y-57749292D02*
X63491666Y-57723102D01*
X63491666Y-57723102D02*
X63517856Y-57696911D01*
X62941665Y-57696911D02*
X62915475Y-57723102D01*
X62915475Y-57723102D02*
X62941665Y-57749292D01*
X62941665Y-57749292D02*
X62967856Y-57723102D01*
X62967856Y-57723102D02*
X62941665Y-57696911D01*
X62941665Y-57696911D02*
X62941665Y-57749292D01*
X62941665Y-57408816D02*
X62915475Y-57435006D01*
X62915475Y-57435006D02*
X62941665Y-57461197D01*
X62941665Y-57461197D02*
X62967856Y-57435006D01*
X62967856Y-57435006D02*
X62941665Y-57408816D01*
X62941665Y-57408816D02*
X62941665Y-57461197D01*
X62679760Y-57461197D02*
X62496427Y-57461197D01*
X62417855Y-57749292D02*
X62679760Y-57749292D01*
X62679760Y-57749292D02*
X62679760Y-57199292D01*
X62679760Y-57199292D02*
X62417855Y-57199292D01*
X62182141Y-57749292D02*
X62182141Y-57199292D01*
X62182141Y-57199292D02*
X61867855Y-57749292D01*
X61867855Y-57749292D02*
X61867855Y-57199292D01*
X65809524Y-55929292D02*
X65914286Y-55929292D01*
X65914286Y-55929292D02*
X65966667Y-55955482D01*
X65966667Y-55955482D02*
X65992857Y-55981673D01*
X65992857Y-55981673D02*
X66045238Y-56060244D01*
X66045238Y-56060244D02*
X66071429Y-56165006D01*
X66071429Y-56165006D02*
X66071429Y-56374530D01*
X66071429Y-56374530D02*
X66045238Y-56426911D01*
X66045238Y-56426911D02*
X66019048Y-56453102D01*
X66019048Y-56453102D02*
X65966667Y-56479292D01*
X65966667Y-56479292D02*
X65861905Y-56479292D01*
X65861905Y-56479292D02*
X65809524Y-56453102D01*
X65809524Y-56453102D02*
X65783333Y-56426911D01*
X65783333Y-56426911D02*
X65757143Y-56374530D01*
X65757143Y-56374530D02*
X65757143Y-56243578D01*
X65757143Y-56243578D02*
X65783333Y-56191197D01*
X65783333Y-56191197D02*
X65809524Y-56165006D01*
X65809524Y-56165006D02*
X65861905Y-56138816D01*
X65861905Y-56138816D02*
X65966667Y-56138816D01*
X65966667Y-56138816D02*
X66019048Y-56165006D01*
X66019048Y-56165006D02*
X66045238Y-56191197D01*
X66045238Y-56191197D02*
X66071429Y-56243578D01*
X65521428Y-56426911D02*
X65495238Y-56453102D01*
X65495238Y-56453102D02*
X65521428Y-56479292D01*
X65521428Y-56479292D02*
X65547619Y-56453102D01*
X65547619Y-56453102D02*
X65521428Y-56426911D01*
X65521428Y-56426911D02*
X65521428Y-56479292D01*
X65521428Y-56138816D02*
X65495238Y-56165006D01*
X65495238Y-56165006D02*
X65521428Y-56191197D01*
X65521428Y-56191197D02*
X65547619Y-56165006D01*
X65547619Y-56165006D02*
X65521428Y-56138816D01*
X65521428Y-56138816D02*
X65521428Y-56191197D01*
X65259523Y-56479292D02*
X65259523Y-55929292D01*
X65259523Y-55929292D02*
X65128571Y-55929292D01*
X65128571Y-55929292D02*
X65049999Y-55955482D01*
X65049999Y-55955482D02*
X64997618Y-56007863D01*
X64997618Y-56007863D02*
X64971428Y-56060244D01*
X64971428Y-56060244D02*
X64945237Y-56165006D01*
X64945237Y-56165006D02*
X64945237Y-56243578D01*
X64945237Y-56243578D02*
X64971428Y-56348340D01*
X64971428Y-56348340D02*
X64997618Y-56400721D01*
X64997618Y-56400721D02*
X65049999Y-56453102D01*
X65049999Y-56453102D02*
X65128571Y-56479292D01*
X65128571Y-56479292D02*
X65259523Y-56479292D01*
X64709523Y-56269768D02*
X64290476Y-56269768D01*
X64499999Y-56479292D02*
X64499999Y-56060244D01*
X63347618Y-55929292D02*
X63609523Y-55929292D01*
X63609523Y-55929292D02*
X63635714Y-56191197D01*
X63635714Y-56191197D02*
X63609523Y-56165006D01*
X63609523Y-56165006D02*
X63557142Y-56138816D01*
X63557142Y-56138816D02*
X63426190Y-56138816D01*
X63426190Y-56138816D02*
X63373809Y-56165006D01*
X63373809Y-56165006D02*
X63347618Y-56191197D01*
X63347618Y-56191197D02*
X63321428Y-56243578D01*
X63321428Y-56243578D02*
X63321428Y-56374530D01*
X63321428Y-56374530D02*
X63347618Y-56426911D01*
X63347618Y-56426911D02*
X63373809Y-56453102D01*
X63373809Y-56453102D02*
X63426190Y-56479292D01*
X63426190Y-56479292D02*
X63557142Y-56479292D01*
X63557142Y-56479292D02*
X63609523Y-56453102D01*
X63609523Y-56453102D02*
X63635714Y-56426911D01*
X63085713Y-56426911D02*
X63059523Y-56453102D01*
X63059523Y-56453102D02*
X63085713Y-56479292D01*
X63085713Y-56479292D02*
X63111904Y-56453102D01*
X63111904Y-56453102D02*
X63085713Y-56426911D01*
X63085713Y-56426911D02*
X63085713Y-56479292D01*
X63085713Y-56138816D02*
X63059523Y-56165006D01*
X63059523Y-56165006D02*
X63085713Y-56191197D01*
X63085713Y-56191197D02*
X63111904Y-56165006D01*
X63111904Y-56165006D02*
X63085713Y-56138816D01*
X63085713Y-56138816D02*
X63085713Y-56191197D01*
X62823808Y-56479292D02*
X62823808Y-55929292D01*
X62823808Y-55929292D02*
X62692856Y-55929292D01*
X62692856Y-55929292D02*
X62614284Y-55955482D01*
X62614284Y-55955482D02*
X62561903Y-56007863D01*
X62561903Y-56007863D02*
X62535713Y-56060244D01*
X62535713Y-56060244D02*
X62509522Y-56165006D01*
X62509522Y-56165006D02*
X62509522Y-56243578D01*
X62509522Y-56243578D02*
X62535713Y-56348340D01*
X62535713Y-56348340D02*
X62561903Y-56400721D01*
X62561903Y-56400721D02*
X62614284Y-56453102D01*
X62614284Y-56453102D02*
X62692856Y-56479292D01*
X62692856Y-56479292D02*
X62823808Y-56479292D01*
X62273808Y-56269768D02*
X61854761Y-56269768D01*
D11*
X63839284Y-52350395D02*
X63839284Y-53117061D01*
X63839284Y-52459919D02*
X63784522Y-52405157D01*
X63784522Y-52405157D02*
X63674998Y-52350395D01*
X63674998Y-52350395D02*
X63510713Y-52350395D01*
X63510713Y-52350395D02*
X63401189Y-52405157D01*
X63401189Y-52405157D02*
X63346427Y-52514680D01*
X63346427Y-52514680D02*
X63346427Y-53117061D01*
X62634522Y-53117061D02*
X62744046Y-53062300D01*
X62744046Y-53062300D02*
X62798808Y-52952776D01*
X62798808Y-52952776D02*
X62798808Y-51967061D01*
X62196427Y-53117061D02*
X62196427Y-52350395D01*
X62196427Y-51967061D02*
X62251189Y-52021823D01*
X62251189Y-52021823D02*
X62196427Y-52076585D01*
X62196427Y-52076585D02*
X62141665Y-52021823D01*
X62141665Y-52021823D02*
X62196427Y-51967061D01*
X62196427Y-51967061D02*
X62196427Y-52076585D01*
X61648808Y-52350395D02*
X61648808Y-53117061D01*
X61648808Y-52459919D02*
X61594046Y-52405157D01*
X61594046Y-52405157D02*
X61484522Y-52350395D01*
X61484522Y-52350395D02*
X61320237Y-52350395D01*
X61320237Y-52350395D02*
X61210713Y-52405157D01*
X61210713Y-52405157D02*
X61155951Y-52514680D01*
X61155951Y-52514680D02*
X61155951Y-53117061D01*
X60608332Y-53117061D02*
X60608332Y-51967061D01*
X60498808Y-52678966D02*
X60170237Y-53117061D01*
X60170237Y-52350395D02*
X60608332Y-52788490D01*
X59677380Y-52678966D02*
X58801190Y-52678966D01*
X58089284Y-53117061D02*
X58198808Y-53062300D01*
X58198808Y-53062300D02*
X58253570Y-52952776D01*
X58253570Y-52952776D02*
X58253570Y-51967061D01*
X57651189Y-53117061D02*
X57651189Y-52350395D01*
X57651189Y-51967061D02*
X57705951Y-52021823D01*
X57705951Y-52021823D02*
X57651189Y-52076585D01*
X57651189Y-52076585D02*
X57596427Y-52021823D01*
X57596427Y-52021823D02*
X57651189Y-51967061D01*
X57651189Y-51967061D02*
X57651189Y-52076585D01*
X57267856Y-52350395D02*
X56829760Y-52350395D01*
X57103570Y-51967061D02*
X57103570Y-52952776D01*
X57103570Y-52952776D02*
X57048808Y-53062300D01*
X57048808Y-53062300D02*
X56939284Y-53117061D01*
X56939284Y-53117061D02*
X56829760Y-53117061D01*
X56008332Y-53062300D02*
X56117856Y-53117061D01*
X56117856Y-53117061D02*
X56336903Y-53117061D01*
X56336903Y-53117061D02*
X56446427Y-53062300D01*
X56446427Y-53062300D02*
X56501189Y-52952776D01*
X56501189Y-52952776D02*
X56501189Y-52514680D01*
X56501189Y-52514680D02*
X56446427Y-52405157D01*
X56446427Y-52405157D02*
X56336903Y-52350395D01*
X56336903Y-52350395D02*
X56117856Y-52350395D01*
X56117856Y-52350395D02*
X56008332Y-52405157D01*
X56008332Y-52405157D02*
X55953570Y-52514680D01*
X55953570Y-52514680D02*
X55953570Y-52624204D01*
X55953570Y-52624204D02*
X56501189Y-52733728D01*
X54694047Y-52350395D02*
X54420237Y-53117061D01*
X54420237Y-53117061D02*
X54146428Y-52350395D01*
X53215476Y-52350395D02*
X53215476Y-53117061D01*
X53489285Y-51912300D02*
X53763095Y-52733728D01*
X53763095Y-52733728D02*
X53051190Y-52733728D01*
D10*
X66438096Y-58521673D02*
X66411905Y-58495482D01*
X66411905Y-58495482D02*
X66359524Y-58469292D01*
X66359524Y-58469292D02*
X66228572Y-58469292D01*
X66228572Y-58469292D02*
X66176191Y-58495482D01*
X66176191Y-58495482D02*
X66150000Y-58521673D01*
X66150000Y-58521673D02*
X66123810Y-58574054D01*
X66123810Y-58574054D02*
X66123810Y-58626435D01*
X66123810Y-58626435D02*
X66150000Y-58705006D01*
X66150000Y-58705006D02*
X66464286Y-59019292D01*
X66464286Y-59019292D02*
X66123810Y-59019292D01*
X65888095Y-58966911D02*
X65861905Y-58993102D01*
X65861905Y-58993102D02*
X65888095Y-59019292D01*
X65888095Y-59019292D02*
X65914286Y-58993102D01*
X65914286Y-58993102D02*
X65888095Y-58966911D01*
X65888095Y-58966911D02*
X65888095Y-59019292D01*
X65888095Y-58678816D02*
X65861905Y-58705006D01*
X65861905Y-58705006D02*
X65888095Y-58731197D01*
X65888095Y-58731197D02*
X65914286Y-58705006D01*
X65914286Y-58705006D02*
X65888095Y-58678816D01*
X65888095Y-58678816D02*
X65888095Y-58731197D01*
X65338095Y-58495482D02*
X65390476Y-58469292D01*
X65390476Y-58469292D02*
X65469047Y-58469292D01*
X65469047Y-58469292D02*
X65547619Y-58495482D01*
X65547619Y-58495482D02*
X65600000Y-58547863D01*
X65600000Y-58547863D02*
X65626190Y-58600244D01*
X65626190Y-58600244D02*
X65652381Y-58705006D01*
X65652381Y-58705006D02*
X65652381Y-58783578D01*
X65652381Y-58783578D02*
X65626190Y-58888340D01*
X65626190Y-58888340D02*
X65600000Y-58940721D01*
X65600000Y-58940721D02*
X65547619Y-58993102D01*
X65547619Y-58993102D02*
X65469047Y-59019292D01*
X65469047Y-59019292D02*
X65416666Y-59019292D01*
X65416666Y-59019292D02*
X65338095Y-58993102D01*
X65338095Y-58993102D02*
X65311904Y-58966911D01*
X65311904Y-58966911D02*
X65311904Y-58783578D01*
X65311904Y-58783578D02*
X65416666Y-58783578D01*
X65076190Y-59019292D02*
X65076190Y-58469292D01*
X65076190Y-58469292D02*
X64761904Y-59019292D01*
X64761904Y-59019292D02*
X64761904Y-58469292D01*
X64500000Y-59019292D02*
X64500000Y-58469292D01*
X64500000Y-58469292D02*
X64369048Y-58469292D01*
X64369048Y-58469292D02*
X64290476Y-58495482D01*
X64290476Y-58495482D02*
X64238095Y-58547863D01*
X64238095Y-58547863D02*
X64211905Y-58600244D01*
X64211905Y-58600244D02*
X64185714Y-58705006D01*
X64185714Y-58705006D02*
X64185714Y-58783578D01*
X64185714Y-58783578D02*
X64211905Y-58888340D01*
X64211905Y-58888340D02*
X64238095Y-58940721D01*
X64238095Y-58940721D02*
X64290476Y-58993102D01*
X64290476Y-58993102D02*
X64369048Y-59019292D01*
X64369048Y-59019292D02*
X64500000Y-59019292D01*
X63242857Y-59019292D02*
X63557143Y-59019292D01*
X63400000Y-59019292D02*
X63400000Y-58469292D01*
X63400000Y-58469292D02*
X63452381Y-58547863D01*
X63452381Y-58547863D02*
X63504762Y-58600244D01*
X63504762Y-58600244D02*
X63557143Y-58626435D01*
X63007142Y-58966911D02*
X62980952Y-58993102D01*
X62980952Y-58993102D02*
X63007142Y-59019292D01*
X63007142Y-59019292D02*
X63033333Y-58993102D01*
X63033333Y-58993102D02*
X63007142Y-58966911D01*
X63007142Y-58966911D02*
X63007142Y-59019292D01*
X63007142Y-58678816D02*
X62980952Y-58705006D01*
X62980952Y-58705006D02*
X63007142Y-58731197D01*
X63007142Y-58731197D02*
X63033333Y-58705006D01*
X63033333Y-58705006D02*
X63007142Y-58678816D01*
X63007142Y-58678816D02*
X63007142Y-58731197D01*
X62797618Y-58469292D02*
X62457142Y-58469292D01*
X62457142Y-58469292D02*
X62640475Y-58678816D01*
X62640475Y-58678816D02*
X62561904Y-58678816D01*
X62561904Y-58678816D02*
X62509523Y-58705006D01*
X62509523Y-58705006D02*
X62483332Y-58731197D01*
X62483332Y-58731197D02*
X62457142Y-58783578D01*
X62457142Y-58783578D02*
X62457142Y-58914530D01*
X62457142Y-58914530D02*
X62483332Y-58966911D01*
X62483332Y-58966911D02*
X62509523Y-58993102D01*
X62509523Y-58993102D02*
X62561904Y-59019292D01*
X62561904Y-59019292D02*
X62719047Y-59019292D01*
X62719047Y-59019292D02*
X62771428Y-58993102D01*
X62771428Y-58993102D02*
X62797618Y-58966911D01*
X62299999Y-58469292D02*
X62116665Y-59019292D01*
X62116665Y-59019292D02*
X61933332Y-58469292D01*
X61802379Y-58469292D02*
X61461903Y-58469292D01*
X61461903Y-58469292D02*
X61645236Y-58678816D01*
X61645236Y-58678816D02*
X61566665Y-58678816D01*
X61566665Y-58678816D02*
X61514284Y-58705006D01*
X61514284Y-58705006D02*
X61488093Y-58731197D01*
X61488093Y-58731197D02*
X61461903Y-58783578D01*
X61461903Y-58783578D02*
X61461903Y-58914530D01*
X61461903Y-58914530D02*
X61488093Y-58966911D01*
X61488093Y-58966911D02*
X61514284Y-58993102D01*
X61514284Y-58993102D02*
X61566665Y-59019292D01*
X61566665Y-59019292D02*
X61723808Y-59019292D01*
X61723808Y-59019292D02*
X61776189Y-58993102D01*
X61776189Y-58993102D02*
X61802379Y-58966911D01*
D12*
X77749999Y-60714733D02*
X77749999Y-60014733D01*
X77749999Y-60014733D02*
X77483332Y-60014733D01*
X77483332Y-60014733D02*
X77416666Y-60048066D01*
X77416666Y-60048066D02*
X77383332Y-60081400D01*
X77383332Y-60081400D02*
X77349999Y-60148066D01*
X77349999Y-60148066D02*
X77349999Y-60248066D01*
X77349999Y-60248066D02*
X77383332Y-60314733D01*
X77383332Y-60314733D02*
X77416666Y-60348066D01*
X77416666Y-60348066D02*
X77483332Y-60381400D01*
X77483332Y-60381400D02*
X77749999Y-60381400D01*
X76649999Y-60714733D02*
X76883332Y-60381400D01*
X77049999Y-60714733D02*
X77049999Y-60014733D01*
X77049999Y-60014733D02*
X76783332Y-60014733D01*
X76783332Y-60014733D02*
X76716666Y-60048066D01*
X76716666Y-60048066D02*
X76683332Y-60081400D01*
X76683332Y-60081400D02*
X76649999Y-60148066D01*
X76649999Y-60148066D02*
X76649999Y-60248066D01*
X76649999Y-60248066D02*
X76683332Y-60314733D01*
X76683332Y-60314733D02*
X76716666Y-60348066D01*
X76716666Y-60348066D02*
X76783332Y-60381400D01*
X76783332Y-60381400D02*
X77049999Y-60381400D01*
X76216666Y-60014733D02*
X76083332Y-60014733D01*
X76083332Y-60014733D02*
X76016666Y-60048066D01*
X76016666Y-60048066D02*
X75949999Y-60114733D01*
X75949999Y-60114733D02*
X75916666Y-60248066D01*
X75916666Y-60248066D02*
X75916666Y-60481400D01*
X75916666Y-60481400D02*
X75949999Y-60614733D01*
X75949999Y-60614733D02*
X76016666Y-60681400D01*
X76016666Y-60681400D02*
X76083332Y-60714733D01*
X76083332Y-60714733D02*
X76216666Y-60714733D01*
X76216666Y-60714733D02*
X76283332Y-60681400D01*
X76283332Y-60681400D02*
X76349999Y-60614733D01*
X76349999Y-60614733D02*
X76383332Y-60481400D01*
X76383332Y-60481400D02*
X76383332Y-60248066D01*
X76383332Y-60248066D02*
X76349999Y-60114733D01*
X76349999Y-60114733D02*
X76283332Y-60048066D01*
X76283332Y-60048066D02*
X76216666Y-60014733D01*
X75249999Y-60048066D02*
X75316666Y-60014733D01*
X75316666Y-60014733D02*
X75416666Y-60014733D01*
X75416666Y-60014733D02*
X75516666Y-60048066D01*
X75516666Y-60048066D02*
X75583333Y-60114733D01*
X75583333Y-60114733D02*
X75616666Y-60181400D01*
X75616666Y-60181400D02*
X75649999Y-60314733D01*
X75649999Y-60314733D02*
X75649999Y-60414733D01*
X75649999Y-60414733D02*
X75616666Y-60548066D01*
X75616666Y-60548066D02*
X75583333Y-60614733D01*
X75583333Y-60614733D02*
X75516666Y-60681400D01*
X75516666Y-60681400D02*
X75416666Y-60714733D01*
X75416666Y-60714733D02*
X75349999Y-60714733D01*
X75349999Y-60714733D02*
X75249999Y-60681400D01*
X75249999Y-60681400D02*
X75216666Y-60648066D01*
X75216666Y-60648066D02*
X75216666Y-60414733D01*
X75216666Y-60414733D02*
X75349999Y-60414733D01*
D13*
%TO.C,R5*%
X77846359Y-53120000D02*
X78153641Y-53120000D01*
X77846359Y-53880000D02*
X78153641Y-53880000D01*
%TO.C,C6*%
X75892164Y-53140000D02*
X76107836Y-53140000D01*
X75892164Y-53860000D02*
X76107836Y-53860000D01*
%TO.C,R4*%
X73846359Y-53120000D02*
X74153641Y-53120000D01*
X73846359Y-53880000D02*
X74153641Y-53880000D01*
%TO.C,J4*%
X73410000Y-59400000D02*
X74735000Y-59400000D01*
X74735000Y-55535000D02*
X78265000Y-55535000D01*
X74735000Y-55600000D02*
X74735000Y-55535000D01*
X74735000Y-59465000D02*
X74735000Y-59400000D01*
X74735000Y-59465000D02*
X78265000Y-59465000D01*
X78265000Y-55600000D02*
X78265000Y-55535000D01*
X78265000Y-59465000D02*
X78265000Y-59400000D01*
%TD*%
M02*
