%TF.GenerationSoftware,KiCad,Pcbnew,7.0.11+dfsg-1build4*%
%TF.CreationDate,2026-08-27T19:45:56+00:00*%
%TF.ProjectId,nlink-lite,6e6c696e-6b2d-46c6-9974-652e6b696361,rev?*%
%TF.SameCoordinates,Original*%
%TF.FileFunction,Copper,L4,Bot*%
%TF.FilePolarity,Positive*%
%FSLAX46Y46*%
G04 Gerber Fmt 4.6, Leading zero omitted, Abs format (unit mm)*
G04 Created by KiCad (PCBNEW 7.0.11+dfsg-1build4) date 2026-08-27 19:45:56*
%MOMM*%
%LPD*%
G01*
G04 APERTURE LIST*
G04 Aperture macros list*
%AMRoundRect*
0 Rectangle with rounded corners*
0 $1 Rounding radius*
0 $2 $3 $4 $5 $6 $7 $8 $9 X,Y pos of 4 corners*
0 Add a 4 corners polygon primitive as box body*
4,1,4,$2,$3,$4,$5,$6,$7,$8,$9,$2,$3,0*
0 Add four circle primitives for the rounded corners*
1,1,$1+$1,$2,$3*
1,1,$1+$1,$4,$5*
1,1,$1+$1,$6,$7*
1,1,$1+$1,$8,$9*
0 Add four rect primitives between the rounded corners*
20,1,$1+$1,$2,$3,$4,$5,0*
20,1,$1+$1,$4,$5,$6,$7,0*
20,1,$1+$1,$6,$7,$8,$9,0*
20,1,$1+$1,$8,$9,$2,$3,0*%
G04 Aperture macros list end*
%TA.AperFunction,ComponentPad*%
%ADD10R,1.700000X1.700000*%
%TD*%
%TA.AperFunction,ComponentPad*%
%ADD11O,1.700000X1.700000*%
%TD*%
%TA.AperFunction,SMDPad,CuDef*%
%ADD12RoundRect,0.135000X-0.135000X-0.185000X0.135000X-0.185000X0.135000X0.185000X-0.135000X0.185000X0*%
%TD*%
%TA.AperFunction,SMDPad,CuDef*%
%ADD13RoundRect,0.140000X-0.140000X-0.170000X0.140000X-0.170000X0.140000X0.170000X-0.140000X0.170000X0*%
%TD*%
%TA.AperFunction,SMDPad,CuDef*%
%ADD14R,2.400000X0.740000*%
%TD*%
%TA.AperFunction,ViaPad*%
%ADD15C,0.600000*%
%TD*%
%TA.AperFunction,Conductor*%
%ADD16C,0.200000*%
%TD*%
G04 APERTURE END LIST*
D10*
%TO.P,J1,1*%
%TO.N,VBUS_IN*%
X52000000Y-62600000D03*
D11*
%TO.P,J1,2*%
%TO.N,CALC_DM*%
X52000000Y-60060000D03*
%TO.P,J1,3*%
%TO.N,CALC_DP*%
X52000000Y-57520000D03*
%TO.P,J1,4*%
%TO.N,N/C*%
X52000000Y-54980000D03*
%TO.P,J1,5*%
%TO.N,GND*%
X52000000Y-52440000D03*
%TD*%
D12*
%TO.P,R5,1*%
%TO.N,+3V3*%
X77490000Y-53500000D03*
%TO.P,R5,2*%
%TO.N,IO0*%
X78510000Y-53500000D03*
%TD*%
D13*
%TO.P,C6,1*%
%TO.N,EN*%
X75520000Y-53500000D03*
%TO.P,C6,2*%
%TO.N,GND*%
X76480000Y-53500000D03*
%TD*%
D12*
%TO.P,R4,1*%
%TO.N,+3V3*%
X73490000Y-53500000D03*
%TO.P,R4,2*%
%TO.N,EN*%
X74510000Y-53500000D03*
%TD*%
D14*
%TO.P,J4,1*%
%TO.N,+3V3*%
X74550000Y-58770000D03*
%TO.P,J4,2*%
%TO.N,GND*%
X78450000Y-58770000D03*
%TO.P,J4,3*%
%TO.N,EN*%
X74550000Y-57500000D03*
%TO.P,J4,4*%
%TO.N,IO0*%
X78450000Y-57500000D03*
%TO.P,J4,5*%
%TO.N,USB_DM*%
X74550000Y-56230000D03*
%TO.P,J4,6*%
%TO.N,USB_DP*%
X78450000Y-56230000D03*
%TD*%
D15*
%TO.N,+3V3*%
X72044200Y-57579300D03*
X60592700Y-58270700D03*
X67307200Y-57661500D03*
X74973300Y-54354400D03*
%TO.N,CALC_DM*%
X56497200Y-55787600D03*
%TO.N,CALC_DP*%
X59604800Y-56128200D03*
%TO.N,EN*%
X76822800Y-50585400D03*
%TO.N,GND*%
X80190500Y-53509500D03*
%TO.N,IO0*%
X78087500Y-52590700D03*
%TO.N,STATUS_LED*%
X74107400Y-60590100D03*
X70820000Y-51169000D03*
%TO.N,UART_RX*%
X72292400Y-58923400D03*
X64433000Y-53186700D03*
%TO.N,UART_TX*%
X72273000Y-59800000D03*
X64399600Y-54012700D03*
%TO.N,USB_DM*%
X74900000Y-62386000D03*
%TO.N,USB_DP*%
X75907600Y-62390500D03*
%TD*%
D16*
%TO.N,+3V3*%
X77490000Y-53500000D02*
X76635600Y-54354400D01*
X72244300Y-54745700D02*
X72244300Y-57579300D01*
X72244300Y-57966200D02*
X73048100Y-58770000D01*
X73490000Y-53500000D02*
X72244300Y-54745700D01*
X72244300Y-57579300D02*
X72244300Y-57966200D01*
X76635600Y-54354400D02*
X74973300Y-54354400D01*
X74550000Y-58770000D02*
X73048100Y-58770000D01*
X72244300Y-57579300D02*
X72044200Y-57579300D01*
%TO.N,EN*%
X73048100Y-57500000D02*
X73048100Y-54961900D01*
X74550000Y-57500000D02*
X73048100Y-57500000D01*
X73048100Y-54961900D02*
X74510000Y-53500000D01*
X75520000Y-51888200D02*
X76822800Y-50585400D01*
X75520000Y-53500000D02*
X75520000Y-51888200D01*
X75520000Y-53500000D02*
X74510000Y-53500000D01*
%TO.N,GND*%
X79951900Y-58770000D02*
X80376200Y-58345700D01*
X78660300Y-51979300D02*
X77847800Y-51979300D01*
X76480000Y-53347100D02*
X76480000Y-53500000D01*
X78450000Y-58770000D02*
X79951900Y-58770000D01*
X77847800Y-51979300D02*
X76480000Y-53347100D01*
X80376200Y-53695200D02*
X80190500Y-53509500D01*
X80190500Y-53509500D02*
X78660300Y-51979300D01*
X80376200Y-58345700D02*
X80376200Y-53695200D01*
%TO.N,IO0*%
X78450000Y-57500000D02*
X79951900Y-57500000D01*
X79951900Y-57500000D02*
X79951900Y-54941900D01*
X78510000Y-53500000D02*
X78510000Y-53013200D01*
X79951900Y-54941900D02*
X78510000Y-53500000D01*
X78510000Y-53013200D02*
X78087500Y-52590700D01*
%TO.N,USB_DM*%
X76051900Y-61234100D02*
X74900000Y-62386000D01*
X74550000Y-56230000D02*
X76051900Y-56230000D01*
X76051900Y-56230000D02*
X76051900Y-61234100D01*
%TO.N,USB_DP*%
X76948100Y-61350000D02*
X75907600Y-62390500D01*
X78450000Y-56230000D02*
X76948100Y-56230000D01*
X76948100Y-56230000D02*
X76948100Y-61350000D01*
%TD*%
%TA.AperFunction,Conductor*%
%TO.N,GND*%
G36*
X70137316Y-50520185D02*
G01*
X70183071Y-50572989D01*
X70193015Y-50642147D01*
X70175271Y-50690472D01*
X70094211Y-50819476D01*
X70034631Y-50989745D01*
X70034630Y-50989750D01*
X70014435Y-51168996D01*
X70014435Y-51169003D01*
X70034630Y-51348249D01*
X70034631Y-51348254D01*
X70094211Y-51518523D01*
X70136210Y-51585363D01*
X70190184Y-51671262D01*
X70317738Y-51798816D01*
X70408080Y-51855582D01*
X70459991Y-51888200D01*
X70470478Y-51894789D01*
X70491052Y-51901988D01*
X70640745Y-51954368D01*
X70640750Y-51954369D01*
X70819996Y-51974565D01*
X70820000Y-51974565D01*
X70820004Y-51974565D01*
X70999249Y-51954369D01*
X70999252Y-51954368D01*
X70999255Y-51954368D01*
X71169522Y-51894789D01*
X71322262Y-51798816D01*
X71449816Y-51671262D01*
X71545789Y-51518522D01*
X71605368Y-51348255D01*
X71605369Y-51348249D01*
X71625565Y-51169003D01*
X71625565Y-51168996D01*
X71605369Y-50989750D01*
X71605368Y-50989745D01*
X71545788Y-50819476D01*
X71464729Y-50690472D01*
X71445729Y-50623236D01*
X71466097Y-50556400D01*
X71519364Y-50511186D01*
X71569723Y-50500500D01*
X75759102Y-50500500D01*
X75826141Y-50520185D01*
X75871896Y-50572989D01*
X75881840Y-50642147D01*
X75852815Y-50705703D01*
X75846783Y-50712181D01*
X75128965Y-51429998D01*
X75116774Y-51440690D01*
X75091718Y-51459917D01*
X75067549Y-51491413D01*
X75067550Y-51491414D01*
X74995464Y-51585358D01*
X74995461Y-51585363D01*
X74934957Y-51731434D01*
X74934955Y-51731439D01*
X74917384Y-51864911D01*
X74914318Y-51888200D01*
X74916133Y-51901988D01*
X74918439Y-51919501D01*
X74919500Y-51935687D01*
X74919500Y-52567820D01*
X74899815Y-52634859D01*
X74847011Y-52680614D01*
X74777853Y-52690558D01*
X74760908Y-52686897D01*
X74752443Y-52684438D01*
X74745202Y-52682334D01*
X74709181Y-52679500D01*
X74310830Y-52679500D01*
X74310808Y-52679501D01*
X74274794Y-52682335D01*
X74120611Y-52727129D01*
X74120604Y-52727132D01*
X74063119Y-52761128D01*
X73995395Y-52778309D01*
X73936881Y-52761128D01*
X73879395Y-52727132D01*
X73879388Y-52727129D01*
X73725208Y-52682335D01*
X73725202Y-52682334D01*
X73689181Y-52679500D01*
X73290830Y-52679500D01*
X73290808Y-52679501D01*
X73254794Y-52682335D01*
X73100611Y-52727129D01*
X73100606Y-52727131D01*
X72962404Y-52808863D01*
X72962396Y-52808869D01*
X72848869Y-52922396D01*
X72848863Y-52922404D01*
X72767131Y-53060606D01*
X72767129Y-53060611D01*
X72722335Y-53214791D01*
X72722334Y-53214797D01*
X72719500Y-53250811D01*
X72719500Y-53369902D01*
X72699815Y-53436941D01*
X72683181Y-53457583D01*
X71853265Y-54287498D01*
X71841075Y-54298189D01*
X71816016Y-54317418D01*
X71770410Y-54376855D01*
X71719764Y-54442858D01*
X71719761Y-54442863D01*
X71659257Y-54588934D01*
X71659255Y-54588939D01*
X71638764Y-54744592D01*
X71638618Y-54745700D01*
X71640189Y-54757634D01*
X71642739Y-54777001D01*
X71643800Y-54793187D01*
X71643800Y-56816946D01*
X71624115Y-56883985D01*
X71585773Y-56921939D01*
X71541941Y-56949480D01*
X71414384Y-57077037D01*
X71318411Y-57229776D01*
X71258831Y-57400045D01*
X71258830Y-57400050D01*
X71238635Y-57579296D01*
X71238635Y-57579303D01*
X71258830Y-57758549D01*
X71258831Y-57758554D01*
X71318411Y-57928823D01*
X71370061Y-58011023D01*
X71414384Y-58081562D01*
X71541938Y-58209116D01*
X71618952Y-58257507D01*
X71665243Y-58309842D01*
X71675891Y-58378895D01*
X71657974Y-58428473D01*
X71566611Y-58573876D01*
X71507031Y-58744145D01*
X71507030Y-58744150D01*
X71486835Y-58923396D01*
X71486835Y-58923403D01*
X71507030Y-59102649D01*
X71507033Y-59102662D01*
X71566609Y-59272918D01*
X71566610Y-59272920D01*
X71566611Y-59272922D01*
X71571241Y-59280290D01*
X71590241Y-59347526D01*
X71571241Y-59412233D01*
X71547210Y-59450478D01*
X71487633Y-59620737D01*
X71487630Y-59620750D01*
X71467435Y-59799996D01*
X71467435Y-59800003D01*
X71487630Y-59979249D01*
X71487631Y-59979254D01*
X71547211Y-60149523D01*
X71604424Y-60240576D01*
X71643184Y-60302262D01*
X71770738Y-60429816D01*
X71844968Y-60476458D01*
X71920081Y-60523655D01*
X71923478Y-60525789D01*
X72093745Y-60585368D01*
X72093750Y-60585369D01*
X72272996Y-60605565D01*
X72273000Y-60605565D01*
X72273004Y-60605565D01*
X72452249Y-60585369D01*
X72452252Y-60585368D01*
X72452255Y-60585368D01*
X72622522Y-60525789D01*
X72775262Y-60429816D01*
X72902816Y-60302262D01*
X72998789Y-60149522D01*
X73058368Y-59979255D01*
X73058369Y-59979249D01*
X73078565Y-59800003D01*
X73078565Y-59799999D01*
X73077831Y-59793493D01*
X73074463Y-59763596D01*
X73086517Y-59694776D01*
X73133865Y-59643396D01*
X73201475Y-59625771D01*
X73234956Y-59632342D01*
X73234965Y-59632307D01*
X73235902Y-59632528D01*
X73241020Y-59633533D01*
X73242516Y-59634091D01*
X73249444Y-59634835D01*
X73302127Y-59640500D01*
X73683659Y-59640499D01*
X73750696Y-59660183D01*
X73796451Y-59712987D01*
X73806395Y-59782146D01*
X73777370Y-59845701D01*
X73749630Y-59869492D01*
X73605139Y-59960282D01*
X73477584Y-60087837D01*
X73381611Y-60240576D01*
X73322031Y-60410845D01*
X73322030Y-60410850D01*
X73301835Y-60590096D01*
X73301835Y-60590103D01*
X73322030Y-60769349D01*
X73322031Y-60769354D01*
X73381611Y-60939623D01*
X73410353Y-60985365D01*
X73477584Y-61092362D01*
X73605138Y-61219916D01*
X73664458Y-61257189D01*
X73742467Y-61306206D01*
X73757878Y-61315889D01*
X73812097Y-61334861D01*
X73928145Y-61375468D01*
X73928150Y-61375469D01*
X74107396Y-61395665D01*
X74107400Y-61395665D01*
X74107404Y-61395665D01*
X74286649Y-61375469D01*
X74286652Y-61375468D01*
X74286655Y-61375468D01*
X74456922Y-61315889D01*
X74609662Y-61219916D01*
X74737216Y-61092362D01*
X74833189Y-60939622D01*
X74892768Y-60769355D01*
X74912965Y-60590100D01*
X74908085Y-60546791D01*
X74892769Y-60410850D01*
X74892768Y-60410845D01*
X74854773Y-60302262D01*
X74833189Y-60240578D01*
X74737216Y-60087838D01*
X74609662Y-59960284D01*
X74609656Y-59960279D01*
X74465170Y-59869492D01*
X74418879Y-59817158D01*
X74408231Y-59748104D01*
X74436606Y-59684256D01*
X74494996Y-59645884D01*
X74531139Y-59640499D01*
X75327400Y-59640499D01*
X75394439Y-59660184D01*
X75440194Y-59712988D01*
X75451400Y-59764499D01*
X75451400Y-60934002D01*
X75431715Y-61001041D01*
X75415081Y-61021683D01*
X74881465Y-61555298D01*
X74820142Y-61588783D01*
X74807668Y-61590837D01*
X74720750Y-61600630D01*
X74550478Y-61660210D01*
X74397737Y-61756184D01*
X74270184Y-61883737D01*
X74174211Y-62036476D01*
X74114631Y-62206745D01*
X74114630Y-62206750D01*
X74094435Y-62385996D01*
X74094435Y-62386003D01*
X74114630Y-62565249D01*
X74114631Y-62565254D01*
X74174211Y-62735523D01*
X74270184Y-62888262D01*
X74397738Y-63015816D01*
X74550478Y-63111789D01*
X74720745Y-63171368D01*
X74720750Y-63171369D01*
X74899996Y-63191565D01*
X74900000Y-63191565D01*
X74900004Y-63191565D01*
X75079249Y-63171369D01*
X75079252Y-63171368D01*
X75079255Y-63171368D01*
X75249522Y-63111789D01*
X75334246Y-63058552D01*
X75401481Y-63039552D01*
X75466190Y-63058552D01*
X75550914Y-63111788D01*
X75558078Y-63116289D01*
X75715485Y-63171368D01*
X75728345Y-63175868D01*
X75728350Y-63175869D01*
X75907596Y-63196065D01*
X75907600Y-63196065D01*
X75907604Y-63196065D01*
X76086849Y-63175869D01*
X76086852Y-63175868D01*
X76086855Y-63175868D01*
X76257122Y-63116289D01*
X76409862Y-63020316D01*
X76537416Y-62892762D01*
X76633389Y-62740022D01*
X76692968Y-62569755D01*
X76702761Y-62482829D01*
X76729826Y-62418418D01*
X76738290Y-62409043D01*
X77339143Y-61808190D01*
X77351323Y-61797509D01*
X77376382Y-61778282D01*
X77472636Y-61652841D01*
X77533144Y-61506762D01*
X77548600Y-61389361D01*
X77553782Y-61350000D01*
X77549661Y-61318697D01*
X77548600Y-61302512D01*
X77548600Y-59764000D01*
X77568285Y-59696961D01*
X77621089Y-59651206D01*
X77672600Y-59640000D01*
X78200000Y-59640000D01*
X78200000Y-59020000D01*
X78700000Y-59020000D01*
X78700000Y-59640000D01*
X79697828Y-59640000D01*
X79697844Y-59639999D01*
X79757372Y-59633598D01*
X79757379Y-59633596D01*
X79892086Y-59583354D01*
X79892093Y-59583350D01*
X80007187Y-59497190D01*
X80007190Y-59497187D01*
X80093350Y-59382093D01*
X80093354Y-59382086D01*
X80143596Y-59247379D01*
X80143598Y-59247372D01*
X80149999Y-59187844D01*
X80150000Y-59187827D01*
X80150000Y-59020000D01*
X78700000Y-59020000D01*
X78200000Y-59020000D01*
X78200000Y-58644000D01*
X78219685Y-58576961D01*
X78272489Y-58531206D01*
X78324000Y-58520000D01*
X80150000Y-58520000D01*
X80150000Y-58352172D01*
X80149999Y-58352155D01*
X80143598Y-58292627D01*
X80143597Y-58292623D01*
X80113673Y-58212394D01*
X80108689Y-58142703D01*
X80142173Y-58081379D01*
X80182401Y-58054500D01*
X80254741Y-58024536D01*
X80380182Y-57928282D01*
X80476436Y-57802841D01*
X80536944Y-57656762D01*
X80552400Y-57539361D01*
X80557582Y-57500000D01*
X80553461Y-57468697D01*
X80552400Y-57452512D01*
X80552400Y-54989394D01*
X80553461Y-54973208D01*
X80557583Y-54941900D01*
X80557583Y-54941899D01*
X80554865Y-54921260D01*
X80536944Y-54785138D01*
X80476436Y-54639059D01*
X80404350Y-54545115D01*
X80382274Y-54516344D01*
X80380181Y-54513616D01*
X80355129Y-54494394D01*
X80342934Y-54483699D01*
X79316818Y-53457583D01*
X79283333Y-53396260D01*
X79280499Y-53369902D01*
X79280499Y-53250831D01*
X79280498Y-53250806D01*
X79278783Y-53229008D01*
X79277665Y-53214796D01*
X79232869Y-53060607D01*
X79151135Y-52922402D01*
X79151133Y-52922400D01*
X79151130Y-52922396D01*
X79119466Y-52890732D01*
X79092586Y-52850504D01*
X79034537Y-52710361D01*
X79034535Y-52710358D01*
X79023129Y-52695494D01*
X78998493Y-52663387D01*
X78962451Y-52616416D01*
X78962450Y-52616415D01*
X78938282Y-52584918D01*
X78929902Y-52578488D01*
X78888700Y-52522063D01*
X78882169Y-52494004D01*
X78872868Y-52411445D01*
X78813289Y-52241178D01*
X78717316Y-52088438D01*
X78589762Y-51960884D01*
X78579432Y-51954393D01*
X78437023Y-51864911D01*
X78266754Y-51805331D01*
X78266749Y-51805330D01*
X78087504Y-51785135D01*
X78087496Y-51785135D01*
X77908250Y-51805330D01*
X77908245Y-51805331D01*
X77737976Y-51864911D01*
X77585237Y-51960884D01*
X77457684Y-52088437D01*
X77361711Y-52241176D01*
X77302131Y-52411445D01*
X77302130Y-52411450D01*
X77281433Y-52595150D01*
X77254367Y-52659564D01*
X77196772Y-52699120D01*
X77192809Y-52700343D01*
X77100610Y-52727129D01*
X77100608Y-52727130D01*
X77042358Y-52761579D01*
X76974634Y-52778760D01*
X76916116Y-52761577D01*
X76876198Y-52737969D01*
X76876190Y-52737966D01*
X76730001Y-52695493D01*
X76730000Y-52695494D01*
X76730000Y-53170764D01*
X76725078Y-53205355D01*
X76722335Y-53214795D01*
X76722334Y-53214802D01*
X76719500Y-53250811D01*
X76719500Y-53369902D01*
X76699815Y-53436941D01*
X76683181Y-53457583D01*
X76512181Y-53628583D01*
X76450858Y-53662068D01*
X76381166Y-53657084D01*
X76325233Y-53615212D01*
X76300816Y-53549748D01*
X76300500Y-53540902D01*
X76300500Y-53265317D01*
X76300499Y-53265302D01*
X76299360Y-53250831D01*
X76297643Y-53229007D01*
X76293514Y-53214796D01*
X76252495Y-53073608D01*
X76252492Y-53073600D01*
X76247266Y-53064763D01*
X76230000Y-53001645D01*
X76230000Y-52695494D01*
X76210738Y-52681032D01*
X76209219Y-52681028D01*
X76150551Y-52643082D01*
X76121711Y-52579442D01*
X76120500Y-52562153D01*
X76120500Y-52188296D01*
X76140185Y-52121257D01*
X76156815Y-52100619D01*
X76841335Y-51416098D01*
X76902656Y-51382615D01*
X76915111Y-51380563D01*
X77002055Y-51370768D01*
X77172322Y-51311189D01*
X77325062Y-51215216D01*
X77452616Y-51087662D01*
X77548589Y-50934922D01*
X77608168Y-50764655D01*
X77614081Y-50712181D01*
X77625524Y-50610617D01*
X77652590Y-50546203D01*
X77710185Y-50506648D01*
X77748744Y-50500500D01*
X83276000Y-50500500D01*
X83343039Y-50520185D01*
X83388794Y-50572989D01*
X83400000Y-50624500D01*
X83400000Y-64375500D01*
X83380315Y-64442539D01*
X83327511Y-64488294D01*
X83276000Y-64499500D01*
X50624500Y-64499500D01*
X50557461Y-64479815D01*
X50511706Y-64427011D01*
X50500500Y-64375500D01*
X50500500Y-63790102D01*
X50520185Y-63723063D01*
X50572989Y-63677308D01*
X50642147Y-63667364D01*
X50705703Y-63696389D01*
X50723762Y-63715786D01*
X50792454Y-63807546D01*
X50838643Y-63842123D01*
X50907664Y-63893793D01*
X50907671Y-63893797D01*
X51042517Y-63944091D01*
X51042516Y-63944091D01*
X51049444Y-63944835D01*
X51102127Y-63950500D01*
X52897872Y-63950499D01*
X52957483Y-63944091D01*
X53092331Y-63893796D01*
X53207546Y-63807546D01*
X53293796Y-63692331D01*
X53344091Y-63557483D01*
X53350500Y-63497873D01*
X53350499Y-62105056D01*
X56080034Y-62105056D01*
X56120744Y-62270227D01*
X56199797Y-62420850D01*
X56199800Y-62420853D01*
X56312605Y-62548184D01*
X56343856Y-62569755D01*
X56452602Y-62644818D01*
X56452603Y-62644818D01*
X56452604Y-62644819D01*
X56611662Y-62705141D01*
X56687562Y-62714357D01*
X56738160Y-62720501D01*
X56738162Y-62720501D01*
X56822908Y-62720501D01*
X56865072Y-62715381D01*
X56949406Y-62705141D01*
X57108464Y-62644819D01*
X57248463Y-62548184D01*
X57361268Y-62420853D01*
X57379561Y-62386000D01*
X57440323Y-62270227D01*
X57440324Y-62270226D01*
X57481034Y-62105057D01*
X57481034Y-62105056D01*
X59080034Y-62105056D01*
X59120744Y-62270227D01*
X59199797Y-62420850D01*
X59199800Y-62420853D01*
X59312605Y-62548184D01*
X59343856Y-62569755D01*
X59452602Y-62644818D01*
X59452603Y-62644818D01*
X59452604Y-62644819D01*
X59611662Y-62705141D01*
X59687562Y-62714357D01*
X59738160Y-62720501D01*
X59738162Y-62720501D01*
X59822908Y-62720501D01*
X59865072Y-62715381D01*
X59949406Y-62705141D01*
X60108464Y-62644819D01*
X60248463Y-62548184D01*
X60361268Y-62420853D01*
X60379561Y-62386000D01*
X60440323Y-62270227D01*
X60440324Y-62270226D01*
X60481034Y-62105057D01*
X60481034Y-61934945D01*
X60440324Y-61769776D01*
X60404820Y-61702129D01*
X60361270Y-61619151D01*
X60304701Y-61555298D01*
X60248463Y-61491818D01*
X60198711Y-61457476D01*
X60108465Y-61395183D01*
X59949408Y-61334861D01*
X59949402Y-61334860D01*
X59822908Y-61319501D01*
X59822906Y-61319501D01*
X59738162Y-61319501D01*
X59738160Y-61319501D01*
X59611665Y-61334860D01*
X59611659Y-61334861D01*
X59452602Y-61395183D01*
X59312606Y-61491817D01*
X59199797Y-61619151D01*
X59120744Y-61769774D01*
X59080034Y-61934945D01*
X59080034Y-62105056D01*
X57481034Y-62105056D01*
X57481034Y-61934945D01*
X57440324Y-61769776D01*
X57404820Y-61702129D01*
X57361270Y-61619151D01*
X57304701Y-61555298D01*
X57248463Y-61491818D01*
X57198711Y-61457476D01*
X57108465Y-61395183D01*
X56949408Y-61334861D01*
X56949402Y-61334860D01*
X56822908Y-61319501D01*
X56822906Y-61319501D01*
X56738162Y-61319501D01*
X56738160Y-61319501D01*
X56611665Y-61334860D01*
X56611659Y-61334861D01*
X56452602Y-61395183D01*
X56312606Y-61491817D01*
X56199797Y-61619151D01*
X56120744Y-61769774D01*
X56080034Y-61934945D01*
X56080034Y-62105056D01*
X53350499Y-62105056D01*
X53350499Y-61702128D01*
X53344091Y-61642517D01*
X53335375Y-61619149D01*
X53293797Y-61507671D01*
X53293793Y-61507664D01*
X53207547Y-61392455D01*
X53207544Y-61392452D01*
X53092335Y-61306206D01*
X53092328Y-61306202D01*
X52960917Y-61257189D01*
X52904983Y-61215318D01*
X52880566Y-61149853D01*
X52895418Y-61081580D01*
X52916563Y-61053332D01*
X53038495Y-60931401D01*
X53174035Y-60737830D01*
X53273903Y-60523663D01*
X53335063Y-60295408D01*
X53355659Y-60060000D01*
X53335063Y-59824592D01*
X53281790Y-59625771D01*
X53273905Y-59596344D01*
X53273904Y-59596343D01*
X53273903Y-59596337D01*
X53174035Y-59382171D01*
X53173981Y-59382093D01*
X53038494Y-59188597D01*
X52871402Y-59021506D01*
X52871396Y-59021501D01*
X52685842Y-58891575D01*
X52642217Y-58836998D01*
X52635023Y-58767500D01*
X52666546Y-58705145D01*
X52685842Y-58688425D01*
X52783244Y-58620223D01*
X52871401Y-58558495D01*
X53038495Y-58391401D01*
X53123009Y-58270703D01*
X59787135Y-58270703D01*
X59807330Y-58449949D01*
X59807331Y-58449954D01*
X59866911Y-58620223D01*
X59944059Y-58743002D01*
X59962884Y-58772962D01*
X60090438Y-58900516D01*
X60243178Y-58996489D01*
X60413445Y-59056068D01*
X60413450Y-59056069D01*
X60592696Y-59076265D01*
X60592700Y-59076265D01*
X60592704Y-59076265D01*
X60771949Y-59056069D01*
X60771952Y-59056068D01*
X60771955Y-59056068D01*
X60942222Y-58996489D01*
X61094962Y-58900516D01*
X61222516Y-58772962D01*
X61318489Y-58620222D01*
X61378068Y-58449955D01*
X61378416Y-58446868D01*
X61398265Y-58270703D01*
X61398265Y-58270696D01*
X61378069Y-58091450D01*
X61378068Y-58091445D01*
X61354656Y-58024537D01*
X61318489Y-57921178D01*
X61222516Y-57768438D01*
X61115581Y-57661503D01*
X66501635Y-57661503D01*
X66521830Y-57840749D01*
X66521831Y-57840754D01*
X66581411Y-58011023D01*
X66625619Y-58081379D01*
X66677384Y-58163762D01*
X66804938Y-58291316D01*
X66826858Y-58305089D01*
X66920758Y-58364091D01*
X66957678Y-58387289D01*
X67054413Y-58421138D01*
X67127945Y-58446868D01*
X67127950Y-58446869D01*
X67307196Y-58467065D01*
X67307200Y-58467065D01*
X67307204Y-58467065D01*
X67486449Y-58446869D01*
X67486452Y-58446868D01*
X67486455Y-58446868D01*
X67656722Y-58387289D01*
X67809462Y-58291316D01*
X67937016Y-58163762D01*
X68032989Y-58011022D01*
X68092568Y-57840755D01*
X68100716Y-57768438D01*
X68112765Y-57661503D01*
X68112765Y-57661496D01*
X68092569Y-57482250D01*
X68092568Y-57482245D01*
X68032988Y-57311976D01*
X67937015Y-57159237D01*
X67809462Y-57031684D01*
X67656723Y-56935711D01*
X67486454Y-56876131D01*
X67486449Y-56876130D01*
X67307204Y-56855935D01*
X67307196Y-56855935D01*
X67127950Y-56876130D01*
X67127945Y-56876131D01*
X66957676Y-56935711D01*
X66804937Y-57031684D01*
X66677384Y-57159237D01*
X66581411Y-57311976D01*
X66521831Y-57482245D01*
X66521830Y-57482250D01*
X66501635Y-57661496D01*
X66501635Y-57661503D01*
X61115581Y-57661503D01*
X61094962Y-57640884D01*
X60942223Y-57544911D01*
X60771954Y-57485331D01*
X60771949Y-57485330D01*
X60592704Y-57465135D01*
X60592696Y-57465135D01*
X60413450Y-57485330D01*
X60413445Y-57485331D01*
X60243176Y-57544911D01*
X60090437Y-57640884D01*
X59962884Y-57768437D01*
X59866911Y-57921176D01*
X59807331Y-58091445D01*
X59807330Y-58091450D01*
X59787135Y-58270696D01*
X59787135Y-58270703D01*
X53123009Y-58270703D01*
X53174035Y-58197830D01*
X53273903Y-57983663D01*
X53335063Y-57755408D01*
X53355659Y-57520000D01*
X53335063Y-57284592D01*
X53286888Y-57104799D01*
X53273905Y-57056344D01*
X53273904Y-57056343D01*
X53273903Y-57056337D01*
X53174035Y-56842171D01*
X53156373Y-56816946D01*
X53038494Y-56648597D01*
X52871402Y-56481506D01*
X52871396Y-56481501D01*
X52685842Y-56351575D01*
X52642217Y-56296998D01*
X52635023Y-56227500D01*
X52666546Y-56165145D01*
X52685842Y-56148425D01*
X52714732Y-56128196D01*
X52871401Y-56018495D01*
X53038495Y-55851401D01*
X53083167Y-55787603D01*
X55691635Y-55787603D01*
X55711830Y-55966849D01*
X55711831Y-55966854D01*
X55771411Y-56137123D01*
X55778513Y-56148425D01*
X55867384Y-56289862D01*
X55994938Y-56417416D01*
X56085280Y-56474182D01*
X56096936Y-56481506D01*
X56147678Y-56513389D01*
X56317945Y-56572968D01*
X56317950Y-56572969D01*
X56497196Y-56593165D01*
X56497200Y-56593165D01*
X56497204Y-56593165D01*
X56676449Y-56572969D01*
X56676452Y-56572968D01*
X56676455Y-56572968D01*
X56846722Y-56513389D01*
X56999462Y-56417416D01*
X57127016Y-56289862D01*
X57222989Y-56137122D01*
X57226110Y-56128203D01*
X58799235Y-56128203D01*
X58819430Y-56307449D01*
X58819431Y-56307454D01*
X58879011Y-56477723D01*
X58951549Y-56593165D01*
X58974984Y-56630462D01*
X59102538Y-56758016D01*
X59192880Y-56814782D01*
X59236469Y-56842171D01*
X59255278Y-56853989D01*
X59425545Y-56913568D01*
X59425550Y-56913569D01*
X59604796Y-56933765D01*
X59604800Y-56933765D01*
X59604804Y-56933765D01*
X59784049Y-56913569D01*
X59784052Y-56913568D01*
X59784055Y-56913568D01*
X59954322Y-56853989D01*
X60107062Y-56758016D01*
X60234616Y-56630462D01*
X60330589Y-56477722D01*
X60390168Y-56307455D01*
X60390169Y-56307449D01*
X60410365Y-56128203D01*
X60410365Y-56128196D01*
X60390169Y-55948950D01*
X60390168Y-55948945D01*
X60333711Y-55787600D01*
X60330589Y-55778678D01*
X60234616Y-55625938D01*
X60107062Y-55498384D01*
X60056782Y-55466791D01*
X59954323Y-55402411D01*
X59784054Y-55342831D01*
X59784049Y-55342830D01*
X59604804Y-55322635D01*
X59604796Y-55322635D01*
X59425550Y-55342830D01*
X59425545Y-55342831D01*
X59255276Y-55402411D01*
X59102537Y-55498384D01*
X58974984Y-55625937D01*
X58879011Y-55778676D01*
X58819431Y-55948945D01*
X58819430Y-55948950D01*
X58799235Y-56128196D01*
X58799235Y-56128203D01*
X57226110Y-56128203D01*
X57282568Y-55966855D01*
X57282569Y-55966849D01*
X57302765Y-55787603D01*
X57302765Y-55787596D01*
X57282569Y-55608350D01*
X57282568Y-55608345D01*
X57227915Y-55452157D01*
X57222989Y-55438078D01*
X57209243Y-55416202D01*
X57177642Y-55365909D01*
X57127016Y-55285338D01*
X56999462Y-55157784D01*
X56846723Y-55061811D01*
X56676454Y-55002231D01*
X56676449Y-55002230D01*
X56497204Y-54982035D01*
X56497196Y-54982035D01*
X56317950Y-55002230D01*
X56317945Y-55002231D01*
X56147676Y-55061811D01*
X55994937Y-55157784D01*
X55867384Y-55285337D01*
X55771411Y-55438076D01*
X55711831Y-55608345D01*
X55711830Y-55608350D01*
X55691635Y-55787596D01*
X55691635Y-55787603D01*
X53083167Y-55787603D01*
X53174035Y-55657830D01*
X53273903Y-55443663D01*
X53335063Y-55215408D01*
X53355659Y-54980000D01*
X53335063Y-54744592D01*
X53286888Y-54564799D01*
X53273905Y-54516344D01*
X53273904Y-54516343D01*
X53273903Y-54516337D01*
X53174035Y-54302171D01*
X53117681Y-54221688D01*
X53038494Y-54108597D01*
X52942599Y-54012703D01*
X63594035Y-54012703D01*
X63614230Y-54191949D01*
X63614231Y-54191954D01*
X63673811Y-54362223D01*
X63724481Y-54442863D01*
X63769784Y-54514962D01*
X63897338Y-54642516D01*
X64050078Y-54738489D01*
X64183393Y-54785138D01*
X64220345Y-54798068D01*
X64220350Y-54798069D01*
X64399596Y-54818265D01*
X64399600Y-54818265D01*
X64399604Y-54818265D01*
X64578849Y-54798069D01*
X64578852Y-54798068D01*
X64578855Y-54798068D01*
X64749122Y-54738489D01*
X64901862Y-54642516D01*
X65029416Y-54514962D01*
X65125389Y-54362222D01*
X65184968Y-54191955D01*
X65205165Y-54012700D01*
X65197143Y-53941506D01*
X65184969Y-53833450D01*
X65184966Y-53833437D01*
X65128525Y-53672139D01*
X65124963Y-53602360D01*
X65140571Y-53565214D01*
X65158789Y-53536222D01*
X65218368Y-53365955D01*
X65229709Y-53265302D01*
X65238565Y-53186703D01*
X65238565Y-53186696D01*
X65218369Y-53007450D01*
X65218368Y-53007445D01*
X65188608Y-52922396D01*
X65158789Y-52837178D01*
X65140997Y-52808863D01*
X65089641Y-52727130D01*
X65062816Y-52684438D01*
X64935262Y-52556884D01*
X64835172Y-52493993D01*
X64782523Y-52460911D01*
X64612254Y-52401331D01*
X64612249Y-52401330D01*
X64433004Y-52381135D01*
X64432996Y-52381135D01*
X64253750Y-52401330D01*
X64253745Y-52401331D01*
X64083476Y-52460911D01*
X63930737Y-52556884D01*
X63803184Y-52684437D01*
X63707211Y-52837176D01*
X63647631Y-53007445D01*
X63647630Y-53007450D01*
X63627435Y-53186696D01*
X63627435Y-53186703D01*
X63647630Y-53365949D01*
X63647633Y-53365962D01*
X63704074Y-53527259D01*
X63707636Y-53597038D01*
X63692028Y-53634183D01*
X63673811Y-53663176D01*
X63673810Y-53663178D01*
X63614233Y-53833437D01*
X63614230Y-53833450D01*
X63594035Y-54012696D01*
X63594035Y-54012703D01*
X52942599Y-54012703D01*
X52871402Y-53941506D01*
X52871401Y-53941505D01*
X52685405Y-53811269D01*
X52641781Y-53756692D01*
X52634588Y-53687193D01*
X52666110Y-53624839D01*
X52685405Y-53608119D01*
X52871082Y-53478105D01*
X53038105Y-53311082D01*
X53173600Y-53117578D01*
X53273429Y-52903492D01*
X53273432Y-52903486D01*
X53330636Y-52690000D01*
X52433686Y-52690000D01*
X52459493Y-52649844D01*
X52500000Y-52511889D01*
X52500000Y-52368111D01*
X52459493Y-52230156D01*
X52433686Y-52190000D01*
X53330636Y-52190000D01*
X53330635Y-52189999D01*
X53273432Y-51976513D01*
X53273429Y-51976507D01*
X53173600Y-51762422D01*
X53173599Y-51762420D01*
X53038113Y-51568926D01*
X53038108Y-51568920D01*
X52871082Y-51401894D01*
X52677578Y-51266399D01*
X52463492Y-51166570D01*
X52463486Y-51166567D01*
X52250000Y-51109364D01*
X52250000Y-52004498D01*
X52142315Y-51955320D01*
X52035763Y-51940000D01*
X51964237Y-51940000D01*
X51857685Y-51955320D01*
X51750000Y-52004498D01*
X51750000Y-51109364D01*
X51749999Y-51109364D01*
X51536513Y-51166567D01*
X51536507Y-51166570D01*
X51322422Y-51266399D01*
X51322420Y-51266400D01*
X51128926Y-51401886D01*
X51128920Y-51401891D01*
X50961891Y-51568920D01*
X50961886Y-51568926D01*
X50826400Y-51762420D01*
X50826399Y-51762422D01*
X50736882Y-51954393D01*
X50690710Y-52006832D01*
X50623516Y-52025984D01*
X50556635Y-52005768D01*
X50511300Y-51952603D01*
X50500500Y-51901988D01*
X50500500Y-50624500D01*
X50520185Y-50557461D01*
X50572989Y-50511706D01*
X50624500Y-50500500D01*
X70070277Y-50500500D01*
X70137316Y-50520185D01*
G37*
%TD.AperFunction*%
%TD*%
M02*
